# Blender 5.0.0
# www.blender.org
mtllib Huey_RotorTail.mtl
o vehicle#rulivoi_vint_stop01_3
v -0.087094 0.077247 0.197089
v -0.025444 0.077354 0.196976
v -0.052774 -0.021177 0.102601
v -0.087094 0.077247 0.197089
v -0.108067 0.038348 0.060949
v -0.088365 0.158572 0.140145
v -0.059606 0.083659 0.029110
v -0.087094 0.077247 0.197089
v -0.026874 0.158572 0.140145
v -0.059606 0.083659 0.029110
v -0.026080 -0.077923 -0.198095
v -0.060400 0.020501 -0.103606
v -0.087729 -0.078030 -0.198095
v -0.108862 -0.044581 -0.058075
v -0.087729 -0.078030 -0.198095
v -0.086299 -0.159248 -0.141151
v -0.053568 -0.084335 -0.030230
v -0.087729 -0.078030 -0.198095
v -0.053568 -0.084335 -0.030230
v -0.024650 -0.159141 -0.141266
v -0.018930 0.087933 0.130445
v -0.055475 0.118284 0.109562
v -0.056110 -0.061252 -0.148227
v -0.019565 -0.091709 -0.127229
v -0.054521 0.059080 0.150644
v -0.055157 -0.120455 -0.107144
v -0.091702 -0.090106 -0.128028
v -0.090907 0.089536 0.129647
v -0.018930 0.087933 0.130445
v -0.019565 -0.091709 -0.127229
v -0.055157 -0.120455 -0.107144
v -0.054521 0.059080 0.150644
v -0.056110 -0.061252 -0.148227
v -0.055475 0.118284 0.109562
v -0.090907 0.089536 0.129647
v -0.091702 -0.090106 -0.128028
v -0.038791 0.750611 1.148479
v -0.057699 0.731160 1.162058
v -0.076607 0.750611 1.148479
v -0.030688 0.830760 1.092789
v -0.084710 0.830760 1.092789
v -0.057699 0.915078 1.034704
v -0.030688 0.830760 1.092789
v -0.057699 0.915078 1.034704
v -0.057699 0.310108 0.164794
v -0.030688 0.124161 0.081147
v -0.038791 0.750611 1.148479
v -0.030529 0.046256 0.135011
v -0.057699 0.915078 1.034704
v -0.084710 0.124161 0.081147
v -0.057699 0.310108 0.164794
v -0.084710 0.830760 1.092789
v -0.084869 0.046256 0.135011
v -0.076607 0.750611 1.148479
v -0.057699 0.027554 0.148020
v -0.057699 0.731160 1.162058
v -0.057699 0.731160 1.162058
v -0.038791 0.750611 1.148479
v -0.030529 0.046256 0.135011
v -0.057699 0.027554 0.148020
v -0.057699 0.027554 0.148020
v -0.030529 0.046256 0.135011
v -0.084869 0.046256 0.135011
v -0.030688 0.124161 0.081147
v -0.084710 0.124161 0.081147
v -0.057699 0.310108 0.164794
v -0.038791 -0.751286 -1.149141
v -0.057699 -0.731836 -1.162722
v -0.076607 -0.751286 -1.149141
v -0.030688 -0.831543 -1.093452
v -0.084710 -0.831543 -1.093452
v -0.057699 -0.915753 -1.035368
v -0.030688 -0.831543 -1.093452
v -0.057699 -0.915753 -1.035368
v -0.057699 -0.310570 -0.165230
v -0.030688 -0.124623 -0.081469
v -0.038791 -0.751286 -1.149141
v -0.030529 -0.046718 -0.135332
v -0.057699 -0.915753 -1.035368
v -0.084710 -0.124623 -0.081469
v -0.057699 -0.310570 -0.165230
v -0.084710 -0.831543 -1.093452
v -0.084869 -0.046718 -0.135332
v -0.076607 -0.751286 -1.149141
v -0.057699 -0.028016 -0.148340
v -0.057699 -0.731836 -1.162722
v -0.057699 -0.731836 -1.162722
v -0.038791 -0.751286 -1.149141
v -0.030529 -0.046718 -0.135332
v -0.057699 -0.028016 -0.148340
v -0.057699 -0.028016 -0.148340
v -0.030529 -0.046718 -0.135332
v -0.084869 -0.046718 -0.135332
v -0.030688 -0.124623 -0.081469
v -0.084710 -0.124623 -0.081469
v -0.057699 -0.310570 -0.165230
v 0.109613 0.012700 -0.102580
v -0.063101 -0.006109 -0.090027
v -0.063101 0.012700 -0.102580
v 0.109613 -0.006109 -0.090027
v -0.063101 -0.007605 -0.112622
v 0.109613 -0.007605 -0.112622
v -0.063101 0.012700 -0.102580
v 0.109613 0.012700 -0.102580
v 0.113903 0.014837 0.109904
v 0.113903 -0.009101 0.107281
v -0.054045 -0.009101 0.107281
v -0.054045 0.014837 0.109904
v 0.113903 0.005112 0.087880
v -0.054045 0.005112 0.087880
v 0.113903 -0.009101 0.107281
v -0.054045 -0.009101 0.107281
v 0.129792 -0.002368 -0.023498
v 0.129792 0.021249 0.000239
v -0.514192 0.021249 0.000239
v -0.514192 -0.002368 -0.023498
v 0.129792 -0.025986 0.000239
v -0.514192 -0.025986 0.000239
v 0.129792 -0.002368 0.023975
v -0.514192 -0.002368 0.023975
v 0.129792 0.021249 0.000239
v -0.514192 0.021249 0.000239
v 0.068301 0.024776 0.030936
v 0.068301 -0.004720 0.039495
v 0.068301 -0.031650 0.024775
v 0.068301 0.039523 0.004004
v 0.068301 -0.040199 -0.004667
v 0.068301 0.030867 -0.025437
v 0.068301 -0.025452 -0.031600
v 0.068301 0.004044 -0.040158
v 0.068301 0.039523 0.004004
v 0.068301 0.030867 -0.025437
v 0.155691 0.030867 -0.025437
v 0.155691 0.039523 0.004004
v 0.068301 0.030867 -0.025437
v 0.068301 0.004044 -0.040158
v 0.155691 0.004044 -0.040158
v 0.155691 0.030867 -0.025437
v 0.068301 0.004044 -0.040158
v 0.068301 -0.025452 -0.031600
v 0.155691 -0.025452 -0.031600
v 0.155691 0.004044 -0.040158
v 0.068301 -0.025452 -0.031600
v 0.068301 -0.040199 -0.004667
v 0.155691 -0.040199 -0.004667
v 0.155691 -0.025452 -0.031600
v 0.068301 -0.040199 -0.004667
v 0.068301 -0.031650 0.024775
v 0.155691 -0.031650 0.024775
v 0.155691 -0.040199 -0.004667
v 0.068301 -0.031650 0.024775
v 0.068301 -0.004720 0.039495
v 0.155691 -0.004720 0.039495
v 0.155691 -0.031650 0.024775
v 0.068301 -0.004720 0.039495
v 0.068301 0.024776 0.030936
v 0.155691 0.024776 0.030936
v 0.155691 -0.004720 0.039495
v 0.068301 0.024776 0.030936
v 0.068301 0.039523 0.004004
v 0.155691 0.039523 0.004004
v 0.155691 0.024776 0.030936
v 0.155691 -0.031650 0.024775
v 0.155691 -0.004720 0.039495
v 0.155691 0.024776 0.030936
v 0.155691 0.039523 0.004004
v 0.155691 -0.040199 -0.004667
v 0.155691 0.030867 -0.025437
v 0.155691 -0.025452 -0.031600
v 0.155691 0.004044 -0.040158
v 0.105005 0.020287 -0.116159
v 0.123913 0.020180 -0.104520
v 0.123913 0.017616 0.105797
v 0.086097 0.020180 -0.104520
v 0.105005 0.017509 0.117436
v 0.086097 0.017616 0.105797
v 0.123913 0.017616 0.105797
v 0.123913 0.020180 -0.104520
v 0.123913 -0.016475 -0.105660
v 0.123913 -0.018933 0.104655
v 0.105005 0.017509 0.117436
v 0.105005 -0.019146 0.116296
v 0.123913 0.020180 -0.104520
v 0.105005 -0.016261 -0.117301
v 0.123913 -0.016475 -0.105660
v 0.105005 0.020287 -0.116159
v 0.086097 -0.016475 -0.105660
v 0.086097 0.020180 -0.104520
v 0.086097 -0.018933 0.104655
v 0.086097 0.017616 0.105797
v 0.105005 -0.019146 0.116296
v 0.105005 0.017509 0.117436
v 0.086097 -0.016475 -0.105660
v 0.123913 -0.016475 -0.105660
v 0.105005 -0.016261 -0.117301
v 0.123913 -0.018933 0.104655
v 0.086097 -0.018933 0.104655
v 0.105005 -0.019146 0.116296
v -0.088365 0.158572 0.140145
v -0.026874 0.158572 0.140145
v -0.025444 0.077354 0.196976
v -0.087094 0.077247 0.197089
v -0.026874 0.158572 0.140145
v -0.059606 0.083659 0.029110
v -0.004312 0.044011 0.056954
v -0.025444 0.077354 0.196976
v -0.052774 -0.021177 0.102601
v -0.059606 0.083659 0.029110
v -0.108067 0.038348 0.060949
v -0.052774 -0.021177 0.102601
v -0.004312 0.044011 0.056954
v -0.024650 -0.159141 -0.141266
v -0.026080 -0.077923 -0.198095
v -0.087729 -0.078030 -0.198095
v -0.086299 -0.159248 -0.141151
v -0.024650 -0.159141 -0.141266
v -0.053568 -0.084335 -0.030230
v -0.005106 -0.039024 -0.061954
v -0.026080 -0.077923 -0.198095
v -0.060400 0.020501 -0.103606
v -0.053568 -0.084335 -0.030230
v -0.108862 -0.044581 -0.058075
v -0.060400 0.020501 -0.103606
v -0.005106 -0.039024 -0.061954
vn -0.0025 0.6921 -0.7218
vn 0.7929 0.5426 -0.2772
vn 0.7443 -0.4481 0.4951
vn 0.9885 -0.0760 -0.1306
vn -0.0000 -0.8290 0.5593
vn 0.0012 -0.6923 0.7216
vn 0.8515 -0.4662 0.2399
vn 0.6525 0.5246 -0.5468
vn 0.9868 0.1043 0.1240
vn -0.0025 0.8290 -0.5592
vn -0.7101 -0.5769 0.4036
vn -0.7099 -0.5771 0.4037
vn -0.7112 -0.5758 0.4032
vn -0.7114 -0.5757 0.4031
vn 0.7126 0.5745 -0.4026
vn 0.7099 0.5771 -0.4037
vn 0.7102 0.5768 -0.4036
vn 0.7129 0.5742 -0.4025
vn -0.7032 0.5842 -0.4052
vn -0.7018 0.5852 -0.4062
vn -0.7020 0.5851 -0.4061
vn -0.7034 0.5841 -0.4051
vn 0.7034 -0.5841 0.4050
vn 0.7035 -0.5840 0.4050
vn -0.0000 -0.5713 -0.8208
vn -0.0000 -0.5725 -0.8199
vn -0.0000 -0.5691 -0.8223
vn -0.0000 -0.5673 -0.8235
vn -0.9961 -0.0721 0.0500
vn -0.9669 -0.2094 0.1456
vn -0.9682 -0.2052 0.1433
vn -0.9980 -0.0547 0.0324
vn -0.9969 0.0643 -0.0453
vn -1.0000 -0.0052 -0.0045
vn 0.9670 -0.2089 0.1459
vn 0.9978 -0.0547 0.0381
vn 0.9684 -0.2047 0.1424
vn 0.9959 -0.0755 0.0490
vn 1.0000 0.0019 -0.0017
vn 0.9965 0.0641 -0.0527
vn 0.7797 0.5144 -0.3570
vn 0.6449 0.6252 -0.4396
vn 0.6425 0.6268 -0.4408
vn 0.7820 0.5121 -0.3553
vn -0.7797 0.5112 -0.3615
vn -0.7820 0.5088 -0.3600
vn -0.6449 0.6279 -0.4358
vn -0.6425 0.6296 -0.4368
vn -0.0000 0.5710 0.8209
vn -0.0000 0.5694 0.8220
vn -0.0000 0.5687 0.8225
vn -0.0000 -0.4102 0.9120
vn -0.0000 0.5709 0.8210
vn -0.0000 0.5725 0.8199
vn -0.0000 0.5690 0.8223
vn -0.0000 0.5678 0.8232
vn -0.9961 0.0722 -0.0501
vn -0.9669 0.2096 -0.1458
vn -0.9681 0.2054 -0.1434
vn -0.9980 0.0547 -0.0324
vn -0.9969 -0.0642 0.0453
vn -1.0000 0.0052 0.0045
vn 0.9669 0.2090 -0.1460
vn 0.9978 0.0547 -0.0381
vn 0.9684 0.2048 -0.1425
vn 0.9959 0.0756 -0.0490
vn 1.0000 -0.0019 0.0017
vn 0.9966 -0.0641 0.0527
vn 0.7797 -0.5144 0.3570
vn 0.6449 -0.6252 0.4396
vn 0.6425 -0.6268 0.4408
vn 0.7820 -0.5121 0.3553
vn -0.7797 -0.5112 0.3615
vn -0.7820 -0.5088 0.3600
vn -0.6449 -0.6279 0.4358
vn -0.6425 -0.6296 0.4368
vn -0.0000 -0.5710 -0.8209
vn -0.0000 -0.5694 -0.8221
vn -0.0000 -0.5687 -0.8225
vn -0.0000 0.4107 -0.9118
vn -0.0000 -0.5551 -0.8318
vn -0.0000 0.9978 -0.0661
vn -0.0000 -0.4433 0.8964
vn -0.0000 0.1089 -0.9940
vn -0.0000 -0.9148 0.4039
vn -0.0000 0.8067 0.5910
vn -0.0000 -0.7089 0.7053
vn -0.0000 0.7089 0.7053
vn -0.0000 0.7089 -0.7053
vn -0.0000 -0.7089 -0.7053
vn 1.0000 -0.0000 -0.0000
vn -0.0000 -0.9594 0.2821
vn -0.0000 -0.4811 0.8767
vn -0.0000 0.2787 0.9604
vn -0.0000 0.8771 0.4803
vn -0.0000 0.9603 -0.2789
vn -0.0000 0.4796 -0.8775
vn -0.0000 -0.2787 -0.9604
vn -0.0000 -0.8771 -0.4803
vn -1.0000 -0.0000 -0.0000
vn -0.0001 -0.9999 -0.0120
vn 0.0018 -0.9999 -0.0122
vn -0.0015 -0.9999 -0.0119
vn -0.5242 0.0266 -0.8512
vn -0.5241 0.0266 -0.8512
vn -0.5242 0.0265 -0.8512
vn -0.5243 0.0265 -0.8511
vn -0.5242 -0.0266 0.8512
vn -0.5242 -0.0265 0.8512
vn -0.5243 -0.0265 0.8511
vn -0.5241 -0.0266 0.8512
vn 0.5242 -0.0265 0.8512
vn 0.5242 -0.0266 0.8512
vn 0.5243 -0.0266 0.8511
vn 0.5241 -0.0265 0.8512
vn 0.5242 0.0265 -0.8512
vn 0.5243 0.0266 -0.8511
vn 0.5241 0.0265 -0.8512
vn -0.0000 0.9999 0.0134
vn -0.0000 0.9998 0.0184
vn -0.0000 0.9998 0.0183
vn -0.0002 -0.5734 -0.8193
vn -0.0000 -0.5733 -0.8193
vn -0.0003 -0.5735 -0.8192
vn -0.0005 -0.5736 -0.8192
vn -0.6520 -0.5254 0.5467
vn -0.9868 -0.1042 -0.1241
vn -0.8519 0.4657 -0.2395
vn 0.0002 0.5740 0.8188
vn 0.0012 0.5741 0.8188
vn -0.0008 0.5740 0.8189
vn -0.0000 0.5738 0.8190
vn -0.0010 0.5733 0.8193
vn -0.0005 0.5736 0.8192
vn 0.0005 0.5741 0.8188
vn -0.7438 0.4484 -0.4958
vn -0.9886 0.0743 0.1311
vn -0.7929 -0.5426 0.2772
vn 0.0001 -0.5734 -0.8193
vn 0.0003 -0.5734 -0.8193
vt 0.255700 -0.462800
vt 0.252400 -0.462800
vt 0.254000 -0.454900
vt 0.255800 -0.462800
vt 0.258600 -0.454900
vt 0.262000 -0.462800
vt 0.261900 -0.454900
vt 0.264900 -0.462800
vt 0.264800 -0.462800
vt 0.196300 -0.452800
vt 0.192000 -0.452800
vt 0.192000 -0.434700
vt 0.196300 -0.434700
vt 0.192100 -0.434700
vt 0.196400 -0.434700
vt 0.190800 -0.452800
vt 0.190900 -0.434700
vt 0.190800 -0.434700
vt 0.001700 -0.469500
vt 0.002900 -0.470000
vt 0.004200 -0.469500
vt 0.001100 -0.466000
vt 0.004700 -0.466000
vt 0.003000 -0.459300
vt 0.004800 -0.466000
vt 0.004800 -0.459300
vt 0.064400 -0.459300
vt 0.075600 -0.465500
vt 0.004800 -0.469500
vt 0.075600 -0.469500
vt 0.064500 -0.459300
vt 0.075200 -0.470500
vt 0.004400 -0.470200
vt 0.004700 -0.471000
vt 0.075500 -0.471600
vt 0.077300 -0.470000
vt 0.079000 -0.469500
vt 0.079000 -0.465500
vt 0.001200 -0.466000
vt 0.004700 -0.470900
vt 0.079100 -0.469500
vt 0.079100 -0.465500
vt 0.223200 -0.409800
vt 0.224900 -0.388400
vt 0.223000 -0.388400
vt 0.225100 -0.409800
vt 0.226800 -0.388400
vt 0.226900 -0.409800
vt 0.228700 -0.388400
vt 0.228900 -0.409800
vt 0.224600 -0.388400
vt 0.222500 -0.388500
vt 0.222600 -0.409800
vt 0.224800 -0.409800
vt 0.226600 -0.388400
vt 0.226800 -0.409800
vt 0.227100 -0.463900
vt 0.227700 -0.463800
vt 0.227600 -0.411000
vt 0.227100 -0.411000
vt 0.225600 -0.463900
vt 0.225600 -0.411000
vt 0.225100 -0.463900
vt 0.225100 -0.411100
vt 0.224600 -0.463900
vt 0.224600 -0.411100
vt 0.202400 -0.445200
vt 0.207000 -0.443300
vt 0.211500 -0.445200
vt 0.200600 -0.449700
vt 0.213400 -0.449700
vt 0.202400 -0.454200
vt 0.211500 -0.454200
vt 0.207000 -0.456100
vt 0.191300 -0.447300
vt 0.195400 -0.447300
vt 0.195300 -0.439100
vt 0.191200 -0.439200
vt 0.191400 -0.447300
vt 0.191300 -0.439200
vt 0.195300 -0.447300
vt 0.195200 -0.439100
vt 0.204200 -0.455500
vt 0.200900 -0.451800
vt 0.201200 -0.446900
vt 0.204900 -0.443600
vt 0.209100 -0.455800
vt 0.209800 -0.443900
vt 0.212700 -0.452500
vt 0.213000 -0.447600
vt 0.197900 -0.456500
vt 0.196900 -0.454700
vt 0.179700 -0.454700
vt 0.196900 -0.458400
vt 0.178700 -0.456500
vt 0.179700 -0.458400
vt 0.186500 -0.427400
vt 0.197800 -0.427700
vt 0.197800 -0.431700
vt 0.186500 -0.431400
vt 0.185500 -0.427400
vt 0.185500 -0.431400
vt 0.197000 -0.431700
vt 0.197000 -0.427800
vt 0.196100 -0.431700
vt 0.196100 -0.427800
vt 0.186200 -0.431600
vt 0.186200 -0.427700
vt 0.185400 -0.431600
vt 0.185300 -0.427700
s 1
usemtl Huey
f 1/1/1 2/2/1 3/3/1
f 4/4/2 3/3/2 5/5/2
f 6/6/3 5/5/3 7/7/3
f 6/6/4 8/4/4 5/5/4
f 9/8/5 6/6/5 10/7/5
f 11/2/6 12/3/6 13/1/6
f 14/5/7 15/4/7 12/3/7
f 16/6/8 14/5/8 17/7/8
f 18/4/9 14/5/9 16/6/9
f 16/6/10 19/7/10 20/9/10
f 21/10/11 22/11/12 23/12/13
f 21/10/11 23/12/13 24/13/14
f 25/11/15 26/14/16 27/15/17
f 25/11/15 27/15/17 28/10/18
f 29/16/19 30/17/20 31/14/21
f 29/16/19 31/14/21 32/11/22
f 33/12/23 34/11/24 35/16/23
f 33/12/23 35/16/23 36/18/23
f 37/19/25 38/20/26 39/21/25
f 39/21/25 40/22/27 37/19/25
f 39/21/25 41/23/27 40/22/27
f 40/22/27 41/23/27 42/24/28
f 43/25/29 44/26/30 45/27/31
f 43/25/29 45/27/31 46/28/32
f 47/29/33 43/25/29 46/28/32
f 47/29/33 46/28/32 48/30/34
f 49/26/35 50/28/36 51/31/37
f 49/26/35 52/25/38 50/28/36
f 52/25/38 53/30/39 50/28/36
f 52/25/38 54/29/40 53/30/39
f 54/29/41 55/32/42 53/30/43
f 54/29/41 56/33/44 55/32/42
f 57/33/45 58/34/46 59/35/47
f 57/33/45 59/35/47 60/32/48
f 61/36/49 62/37/50 63/30/50
f 63/30/50 62/37/50 64/38/51
f 63/30/50 64/38/51 65/28/51
f 65/28/52 64/38/52 66/27/52
f 67/19/53 68/20/54 69/21/53
f 70/39/55 67/19/53 69/21/53
f 69/21/53 71/23/55 70/39/55
f 70/39/55 71/23/55 72/24/56
f 73/25/57 74/26/58 75/27/59
f 73/25/57 75/27/59 76/28/60
f 77/29/61 73/25/57 76/28/60
f 77/29/61 76/28/60 78/30/62
f 79/26/63 80/28/64 81/27/65
f 79/26/63 82/25/66 80/28/64
f 82/25/66 83/30/67 80/28/64
f 82/25/66 84/29/68 83/30/67
f 84/29/69 85/32/70 83/30/71
f 84/29/69 86/33/72 85/32/70
f 87/33/73 88/40/74 89/35/75
f 87/33/73 89/35/75 90/32/76
f 91/36/77 92/41/78 93/30/78
f 93/30/78 92/41/78 94/42/79
f 93/30/78 94/42/79 95/28/79
f 95/28/80 94/42/80 96/31/80
f 97/43/81 98/44/81 99/45/81
f 97/43/81 100/46/81 98/44/81
f 100/46/82 101/47/82 98/44/82
f 100/46/82 102/48/82 101/47/82
f 102/48/83 103/49/83 101/47/83
f 102/48/83 104/50/83 103/49/83
f 105/51/84 106/52/84 107/53/84
f 105/51/84 107/53/84 108/54/84
f 109/55/85 105/51/85 108/54/85
f 109/55/85 108/54/85 110/56/85
f 111/49/86 109/55/86 110/56/86
f 111/49/86 110/56/86 112/50/86
f 113/57/87 114/58/87 115/59/87
f 113/57/87 115/59/87 116/60/87
f 117/61/88 113/57/88 116/60/88
f 117/61/88 116/60/88 118/62/88
f 119/63/89 117/61/89 118/62/89
f 119/63/89 118/62/89 120/64/89
f 121/65/90 119/63/90 120/64/90
f 121/65/90 120/64/90 122/66/90
f 123/67/91 124/68/91 125/69/91
f 125/69/91 126/70/91 123/67/91
f 125/69/91 127/71/91 126/70/91
f 127/71/91 128/72/91 126/70/91
f 127/71/91 129/73/91 128/72/91
f 129/73/91 130/74/91 128/72/91
f 131/75/92 132/76/92 133/77/92
f 131/75/92 133/77/92 134/78/92
f 135/76/93 136/79/93 137/80/93
f 135/76/93 137/80/93 138/77/93
f 139/79/94 140/81/94 141/82/94
f 139/79/94 141/82/94 142/80/94
f 143/81/95 144/79/95 145/80/95
f 143/81/95 145/80/95 146/82/95
f 147/79/96 148/76/96 149/77/96
f 147/79/96 149/77/96 150/80/96
f 151/76/97 152/79/97 153/80/97
f 151/76/97 153/80/97 154/77/97
f 155/79/98 156/81/98 157/82/98
f 155/79/98 157/82/98 158/80/98
f 159/81/99 160/75/99 161/78/99
f 159/81/99 161/78/99 162/82/99
f 163/83/100 164/84/100 165/85/100
f 165/85/100 166/86/100 163/83/100
f 166/86/100 167/87/100 163/83/100
f 166/86/100 168/88/100 167/87/100
f 168/88/100 169/89/100 167/87/100
f 168/88/100 170/90/100 169/89/100
f 171/91/101 172/92/102 173/93/103
f 171/91/101 173/93/103 174/94/103
f 174/94/103 173/93/103 175/95/101
f 174/94/103 175/95/101 176/96/102
f 177/97/100 178/98/100 179/99/100
f 177/97/100 179/99/100 180/100/100
f 181/101/104 177/97/105 180/100/106
f 181/101/104 180/100/106 182/102/107
f 183/98/108 184/103/109 185/99/110
f 183/98/108 186/104/111 184/103/109
f 186/104/112 187/105/113 184/103/114
f 186/104/112 188/106/115 187/105/113
f 188/106/91 189/107/91 187/105/91
f 188/106/91 190/108/91 189/107/91
f 190/108/116 191/109/116 189/107/117
f 190/108/116 192/110/118 191/109/116
f 193/92/119 194/94/119 195/91/120
f 193/92/119 196/96/119 194/94/119
f 197/93/119 196/96/119 193/92/119
f 197/93/119 198/95/121 196/96/119
f 199/74/122 200/70/123 201/68/124
f 199/74/122 201/68/124 202/71/125
f 203/6/126 204/7/126 205/5/126
f 206/1/127 203/6/127 205/5/127
f 205/5/128 207/3/128 206/1/128
f 208/90/129 209/89/130 210/84/129
f 208/90/129 210/84/129 211/86/131
f 212/74/132 213/71/133 214/68/134
f 212/74/132 214/68/134 215/70/135
f 216/6/136 217/7/136 218/5/136
f 216/6/137 218/5/137 219/1/137
f 219/1/138 218/5/138 220/3/138
f 221/90/139 222/86/140 223/84/139
f 221/90/139 223/84/139 224/89/122
