# Blender 5.0.0
# www.blender.org
mtllib Huey_RotorMain.mtl
o vehicle#rotor_stop01_2
v 0.515580 2.149457 -0.398697
v 0.221368 2.104957 -0.533377
v 0.084707 2.127257 -0.595955
v 0.084707 2.127257 -0.595955
v 0.073462 2.148257 -0.601126
v 0.515580 2.149457 -0.398697
v -0.492864 2.149457 0.366863
v -0.198651 2.104957 0.501543
v -0.061991 2.127257 0.564121
v -0.061991 2.127257 0.564121
v -0.050745 2.148257 0.569292
v -0.492864 2.149457 0.366863
v -0.140107 2.218957 0.127514
v -0.023598 2.148457 0.069414
v 0.034266 2.218957 0.191821
v 0.034266 2.077957 0.191821
v -0.140107 2.077957 0.127514
v -0.140107 2.077957 0.127514
v -0.023598 2.148457 0.069414
v -0.140107 2.218957 0.127514
v 0.034266 2.218957 0.191821
v 0.034266 2.077957 0.191821
v 0.162823 2.218957 -0.159348
v 0.046314 2.148457 -0.101248
v -0.011550 2.218957 -0.223655
v -0.011550 2.077957 -0.223655
v 0.162823 2.077957 -0.159348
v 0.162823 2.077957 -0.159348
v 0.046314 2.148457 -0.101248
v 0.162823 2.218957 -0.159348
v -0.011550 2.218957 -0.223655
v -0.011550 2.077957 -0.223655
v 1.342732 2.348457 0.583775
v 1.327285 2.348457 0.620075
v 1.334957 2.380557 0.601849
v -1.321743 2.348457 -0.615221
v -1.303896 2.348457 -0.650295
v -1.312750 2.380557 -0.632733
v 0.144833 1.948457 -0.049550
v 0.218564 2.347757 -0.034195
v 0.202728 2.362057 -0.022622
v 0.202728 2.362057 -0.022622
v 0.132545 1.930057 -0.034278
v 0.220226 2.362557 -0.013779
v 0.151640 1.930557 -0.030195
v 0.151640 1.930557 -0.030195
v 0.218564 2.347757 -0.034195
v 0.144833 1.948457 -0.049550
v 0.151640 1.930557 -0.030195
v 0.144833 1.948457 -0.049550
v 0.132545 1.930057 -0.034278
v 0.218564 2.347757 -0.034195
v 0.220226 2.362557 -0.013779
v 0.202728 2.362057 -0.022622
v -0.122609 1.948457 0.017762
v -0.195848 2.347757 0.002361
v -0.180011 2.362057 -0.009212
v -0.180011 2.362057 -0.009212
v -0.110182 1.930057 0.002541
v -0.197510 2.362557 -0.018055
v -0.129417 1.930557 -0.001593
v -0.129417 1.930557 -0.001593
v -0.195848 2.347757 0.002361
v -0.122609 1.948457 0.017762
v -0.129417 1.930557 -0.001593
v -0.122609 1.948457 0.017762
v -0.110182 1.930057 0.002541
v -0.195848 2.347757 0.002361
v -0.197510 2.362557 -0.018055
v -0.180011 2.362057 -0.009212
v 0.243447 2.377557 0.083105
v 0.254223 2.378657 0.098575
v 0.235512 2.378157 0.100324
v -0.213572 2.377557 -0.130054
v -0.221786 2.378157 -0.112938
v -0.232525 2.378657 -0.128508
v 0.158699 1.427357 0.048209
v 0.160055 1.451057 0.018320
v 0.133333 1.427057 0.028042
v -0.135806 1.427357 -0.080092
v -0.137022 1.451057 -0.050152
v -0.110301 1.427057 -0.059873
v 0.057637 0.719257 0.006841
v 0.044507 2.210557 -0.052519
v 0.044507 0.719257 -0.052519
v 0.057637 2.210557 0.006841
v 0.005525 0.719257 0.035994
v 0.005525 2.210557 0.035994
v -0.014401 0.719257 -0.058651
v -0.014401 2.210557 -0.058651
v -0.039360 2.210557 -0.003436
v -0.039360 0.719257 -0.003436
v -0.039360 0.719257 -0.003436
v -0.039360 2.210557 -0.003436
v 0.005525 2.210557 0.035994
v 0.005525 0.719257 0.035994
v 0.044507 0.719257 -0.052519
v 0.044507 2.210557 -0.052519
v -0.014401 2.210557 -0.058651
v -0.014401 0.719257 -0.058651
v 0.134259 2.228957 -0.129592
v 0.162435 2.229057 -0.048294
v 0.086760 2.229357 0.120811
v 0.007541 2.229457 0.153853
v 0.015199 2.228957 -0.183174
v -0.111379 2.229457 0.100322
v -0.064019 2.229057 -0.150132
v -0.139556 2.229357 0.019024
v 0.007541 2.229457 0.153853
v 0.007541 2.064957 0.153853
v -0.111379 2.064957 0.100322
v -0.111379 2.229457 0.100322
v 0.015199 2.228957 -0.183174
v 0.015199 2.064557 -0.183174
v 0.134259 2.064557 -0.129592
v 0.134259 2.228957 -0.129592
v 0.086760 2.064957 0.120811
v 0.162435 2.064557 -0.048294
v 0.134259 2.064557 -0.129592
v 0.007541 2.064957 0.153853
v 0.015199 2.064557 -0.183174
v -0.111379 2.064957 0.100322
v -0.064019 2.064557 -0.150132
v -0.139556 2.064957 0.019024
v -0.064019 2.229057 -0.150132
v 0.015199 2.064557 -0.183174
v 0.015199 2.228957 -0.183174
v -0.064019 2.064557 -0.150132
v -0.139556 2.229357 0.019024
v -0.139556 2.064957 0.019024
v -0.111379 2.229457 0.100322
v -0.111379 2.064957 0.100322
v 0.086760 2.229357 0.120811
v 0.007541 2.064957 0.153853
v 0.007541 2.229457 0.153853
v 0.086760 2.064957 0.120811
v 0.162435 2.229057 -0.048294
v 0.162435 2.064557 -0.048294
v 0.134259 2.228957 -0.129592
v 0.134259 2.064557 -0.129592
v -0.133293 2.157757 0.487178
v 0.212755 2.112357 -0.494556
v -0.147382 2.112357 0.481982
v 0.226845 2.157757 -0.489360
v -0.169423 2.184757 0.473853
v 0.190715 2.184757 -0.502684
v -0.191045 2.112257 0.465879
v 0.169093 2.112257 -0.510658
v 0.154864 2.157457 -0.515906
v -0.205274 2.157457 0.460632
v 0.190715 2.184757 -0.502684
v -0.169423 2.184757 0.473853
v -0.147382 2.112357 0.481982
v 0.212755 2.112357 -0.494556
v 0.169093 2.112257 -0.510658
v -0.191045 2.112257 0.465879
v -0.147382 2.112357 0.481982
v -0.191045 2.112257 0.465879
v -0.205274 2.157457 0.460632
v -0.133293 2.157757 0.487178
v -0.169423 2.184757 0.473853
v 0.154864 2.157457 -0.515906
v 0.169093 2.112257 -0.510658
v 0.212755 2.112357 -0.494556
v 0.226845 2.157757 -0.489360
v 0.190715 2.184757 -0.502684
v 0.073462 2.148257 -0.601126
v 2.885042 2.148257 -6.610515
v 2.897051 2.169357 -6.604835
v 0.085507 2.169357 -0.595546
v 0.085507 2.169357 -0.595546
v 2.897051 2.169357 -6.604835
v 3.032497 2.193956 -6.541112
v 0.221368 2.193957 -0.533377
v 3.325313 2.149457 -6.403077
v 0.515580 2.149457 -0.398697
v 0.515580 2.149457 -0.398697
v 3.325313 2.149457 -6.403077
v 3.032497 2.104957 -6.541112
v 0.221368 2.104957 -0.533377
v 2.896251 2.127256 -6.605244
v 0.084707 2.127257 -0.595955
v 2.885042 2.148257 -6.610515
v 0.073462 2.148257 -0.601126
v 2.896251 2.127256 -6.605244
v 3.032497 2.104957 -6.541112
v 3.325313 2.149457 -6.403077
v 2.885042 2.148257 -6.610515
v 2.897051 2.169357 -6.604835
v 3.032497 2.193956 -6.541112
v 0.073462 2.148257 -0.601126
v 0.085507 2.169357 -0.595546
v 0.515580 2.149457 -0.398697
v 0.221368 2.193957 -0.533377
v -0.050745 2.148257 0.569292
v -2.862326 2.148258 6.578681
v -2.874335 2.169358 6.573001
v -0.062791 2.169357 0.563712
v -0.062791 2.169357 0.563712
v -2.874335 2.169358 6.573001
v -3.009781 2.193957 6.509278
v -0.198651 2.193957 0.501543
v -3.302597 2.149457 6.371243
v -0.492864 2.149457 0.366863
v -0.492864 2.149457 0.366863
v -3.302597 2.149457 6.371243
v -3.009781 2.104958 6.509278
v -0.198651 2.104957 0.501543
v -2.873535 2.127257 6.573410
v -0.061991 2.127257 0.564121
v -2.862326 2.148258 6.578681
v -0.050745 2.148257 0.569292
v -2.873535 2.127257 6.573410
v -3.009781 2.104958 6.509278
v -3.302597 2.149457 6.371243
v -2.862326 2.148258 6.578681
v -2.874335 2.169358 6.573001
v -3.009781 2.193957 6.509278
v -0.050745 2.148257 0.569292
v -0.062791 2.169357 0.563712
v -0.492864 2.149457 0.366863
v -0.198651 2.193957 0.501543
v -0.103088 2.229157 0.603368
v -0.103088 2.065357 0.603368
v -0.170504 2.065357 0.687768
v -0.170504 2.229157 0.687768
v -0.269203 2.229157 0.651596
v -0.269203 2.065357 0.651596
v -0.266001 2.065357 0.544084
v -0.266001 2.229157 0.544084
v -0.266001 2.229157 0.544084
v -0.266001 2.065357 0.544084
v -0.163634 2.065357 0.516165
v -0.163634 2.229157 0.516165
v -0.103088 2.065357 0.603368
v -0.103088 2.229157 0.603368
v -0.170504 2.229157 0.687768
v -0.170504 2.065357 0.687768
v -0.269203 2.065357 0.651596
v -0.269203 2.229157 0.651596
v -0.163634 2.229157 0.516165
v -0.103088 2.229157 0.603368
v -0.170504 2.229157 0.687768
v -0.269203 2.229157 0.651596
v -0.266001 2.229157 0.544084
v -0.170504 2.065357 0.687768
v -0.103088 2.065357 0.603368
v -0.163634 2.065357 0.516165
v -0.269203 2.065357 0.651596
v -0.266001 2.065357 0.544084
v -0.218992 2.218957 0.341416
v -0.114066 2.219257 0.593173
v -0.249937 2.219257 0.543065
v 0.034266 2.218957 0.191821
v -0.140107 2.218957 0.127514
v 0.034266 2.218957 0.191821
v -0.114206 2.190157 0.593122
v -0.114066 2.219257 0.593173
v -0.060076 2.190257 0.446346
v 0.034266 2.077957 0.191821
v -0.060076 2.107257 0.446346
v -0.114066 2.078257 0.593173
v -0.114206 2.107357 0.593122
v -0.218992 2.218957 0.341416
v -0.218992 2.077957 0.341416
v -0.140107 2.077957 0.127514
v -0.140107 2.218957 0.127514
v -0.114066 2.078257 0.593173
v 0.034266 2.077957 0.191821
v -0.140107 2.077957 0.127514
v -0.249937 2.078257 0.543065
v -0.218992 2.077957 0.341416
v -0.249937 2.219257 0.543065
v -0.114066 2.219257 0.593173
v -0.114206 2.190157 0.593122
v -0.249798 2.190157 0.543117
v -0.114066 2.078257 0.593173
v -0.249937 2.078257 0.543065
v -0.249798 2.107357 0.543117
v -0.114206 2.107357 0.593122
v -0.249798 2.190157 0.543117
v -0.114206 2.190157 0.593122
v -0.060076 2.190257 0.446346
v -0.225939 2.190257 0.385177
v -0.114206 2.107357 0.593122
v -0.249798 2.107357 0.543117
v -0.225939 2.107257 0.385177
v -0.060076 2.107257 0.446346
v -0.196314 2.203257 0.136832
v -0.139138 2.077757 0.128326
v -0.139138 2.215857 0.128326
v -0.196314 2.090457 0.136832
v -0.206438 2.203457 0.164284
v -0.206438 2.090757 0.164284
v -0.168476 2.216257 0.207876
v -0.168476 2.078157 0.207876
v -0.206438 2.203457 0.164284
v -0.196314 2.203257 0.136832
v -0.139138 2.215857 0.128326
v -0.168476 2.216257 0.207876
v -0.168476 2.078157 0.207876
v -0.139138 2.077757 0.128326
v -0.196314 2.090457 0.136832
v -0.206438 2.090757 0.164284
v -0.478773 2.168357 0.448543
v -0.478773 2.126057 0.448543
v -0.507809 2.125957 0.415983
v -0.507809 2.168357 0.415983
v -0.507809 2.168357 0.415983
v -0.437842 2.168357 0.355173
v -0.408806 2.168357 0.387733
v -0.478773 2.168357 0.448543
v -0.507809 2.125957 0.415983
v -0.437842 2.125957 0.355173
v -0.437842 2.168357 0.355173
v -0.507809 2.168357 0.415983
v -0.478773 2.126057 0.448543
v -0.408806 2.126057 0.387733
v -0.437842 2.125957 0.355173
v -0.507809 2.125957 0.415983
v -0.478773 2.168357 0.448543
v -0.408806 2.168357 0.387733
v -0.408806 2.126057 0.387733
v -0.478773 2.126057 0.448543
v -0.408806 2.168357 0.387733
v -0.437842 2.168357 0.355173
v -0.437842 2.125957 0.355173
v -0.408806 2.126057 0.387733
v -0.183974 2.166257 0.170406
v -0.467477 2.166257 0.408890
v -0.480584 2.134157 0.394155
v -0.197081 2.134157 0.155670
v -0.454371 2.134157 0.423626
v -0.170867 2.134157 0.185142
v -0.467477 2.166257 0.408890
v -0.183974 2.166257 0.170406
v -0.169824 2.181657 0.139773
v -0.169266 2.463157 0.139978
v -0.198941 2.463757 0.163293
v -0.199359 2.182257 0.163139
v -0.161937 2.462557 0.176826
v -0.162495 2.181057 0.176620
v -0.169266 2.463157 0.139978
v -0.169824 2.181657 0.139773
v -0.209368 2.409357 0.188129
v -0.209368 2.466057 0.188129
v -0.170588 2.465957 0.202431
v -0.170588 2.409357 0.202431
v -0.135065 2.465957 0.176151
v -0.135205 2.409257 0.176100
v -0.143985 2.465957 0.130295
v -0.143985 2.409357 0.130295
v -0.219322 2.409457 0.145078
v -0.209368 2.466057 0.188129
v -0.209368 2.409357 0.188129
v -0.219322 2.466057 0.145078
v -0.182765 2.409357 0.115993
v -0.182765 2.466057 0.115993
v -0.143985 2.409357 0.130295
v -0.143985 2.465957 0.130295
v -0.170588 2.409357 0.202431
v -0.135205 2.409257 0.176100
v -0.143985 2.409357 0.130295
v -0.209368 2.409357 0.188129
v -0.182765 2.409357 0.115993
v -0.219322 2.409457 0.145078
v -0.143985 2.465957 0.130295
v -0.135065 2.465957 0.176151
v -0.170588 2.465957 0.202431
v -0.209368 2.466057 0.188129
v -0.182765 2.466057 0.115993
v -0.219322 2.466057 0.145078
v -0.225939 2.190257 0.385177
v -0.249937 2.219257 0.543065
v -0.249798 2.190157 0.543117
v -0.218992 2.218957 0.341416
v -0.218992 2.077957 0.341416
v -0.225939 2.107257 0.385177
v -0.249798 2.107357 0.543117
v -0.249937 2.078257 0.543065
v 0.125804 2.229157 -0.635202
v 0.125804 2.065357 -0.635202
v 0.193220 2.065357 -0.719602
v 0.193220 2.229157 -0.719602
v 0.291919 2.229157 -0.683430
v 0.291919 2.065357 -0.683430
v 0.288717 2.065357 -0.575918
v 0.288717 2.229157 -0.575918
v 0.288717 2.229157 -0.575918
v 0.288717 2.065357 -0.575918
v 0.186350 2.065357 -0.547999
v 0.186350 2.229157 -0.547999
v 0.125804 2.065357 -0.635202
v 0.125804 2.229157 -0.635202
v 0.193220 2.229157 -0.719602
v 0.193220 2.065357 -0.719602
v 0.291919 2.065357 -0.683430
v 0.291919 2.229157 -0.683430
v 0.291919 2.229157 -0.683430
v 0.288717 2.229157 -0.575918
v 0.186350 2.229157 -0.547999
v 0.193220 2.229157 -0.719602
v 0.125804 2.229157 -0.635202
v 0.186350 2.065357 -0.547999
v 0.288717 2.065357 -0.575918
v 0.291919 2.065357 -0.683430
v 0.193220 2.065357 -0.719602
v 0.125804 2.065357 -0.635202
v 0.241708 2.218957 -0.373250
v 0.136782 2.219257 -0.625007
v 0.272653 2.219257 -0.574899
v -0.011550 2.218957 -0.223655
v 0.162823 2.218957 -0.159348
v -0.011550 2.218957 -0.223655
v 0.136922 2.190157 -0.624956
v 0.136782 2.219257 -0.625007
v 0.082792 2.190257 -0.478180
v -0.011550 2.077957 -0.223655
v 0.082792 2.107257 -0.478180
v 0.136782 2.078257 -0.625007
v 0.136922 2.107357 -0.624956
v 0.241708 2.218957 -0.373250
v 0.241708 2.077957 -0.373250
v 0.162823 2.077957 -0.159348
v 0.162823 2.218957 -0.159348
v -0.011550 2.077957 -0.223655
v 0.162823 2.077957 -0.159348
v 0.241708 2.077957 -0.373250
v 0.272653 2.078257 -0.574899
v 0.136782 2.078257 -0.625007
v 0.272653 2.219257 -0.574899
v 0.136782 2.219257 -0.625007
v 0.136922 2.190157 -0.624956
v 0.272514 2.190157 -0.574951
v 0.136782 2.078257 -0.625007
v 0.272653 2.078257 -0.574899
v 0.272514 2.107357 -0.574951
v 0.136922 2.107357 -0.624956
v 0.272514 2.190157 -0.574951
v 0.136922 2.190157 -0.624956
v 0.082792 2.190257 -0.478180
v 0.248655 2.190257 -0.417011
v 0.136922 2.107357 -0.624956
v 0.272514 2.107357 -0.574951
v 0.248655 2.107257 -0.417011
v 0.082792 2.107257 -0.478180
v 0.219030 2.203257 -0.168666
v 0.161854 2.077757 -0.160160
v 0.161855 2.215857 -0.160160
v 0.219030 2.090457 -0.168666
v 0.229154 2.203457 -0.196118
v 0.229154 2.090757 -0.196118
v 0.191192 2.216257 -0.239710
v 0.191192 2.078157 -0.239710
v 0.229154 2.203457 -0.196118
v 0.219030 2.203257 -0.168666
v 0.161855 2.215857 -0.160160
v 0.191192 2.216257 -0.239710
v 0.191192 2.078157 -0.239710
v 0.161854 2.077757 -0.160160
v 0.219030 2.090457 -0.168666
v 0.229154 2.090757 -0.196118
v 0.501489 2.168357 -0.480377
v 0.501489 2.126057 -0.480377
v 0.530525 2.125957 -0.447817
v 0.530525 2.168357 -0.447817
v 0.530525 2.168357 -0.447817
v 0.460558 2.168357 -0.387007
v 0.431522 2.168357 -0.419567
v 0.501489 2.168357 -0.480377
v 0.530525 2.125957 -0.447817
v 0.460558 2.125957 -0.387007
v 0.460558 2.168357 -0.387007
v 0.530525 2.168357 -0.447817
v 0.501489 2.126057 -0.480377
v 0.431522 2.126057 -0.419567
v 0.460558 2.125957 -0.387007
v 0.530525 2.125957 -0.447817
v 0.501489 2.168357 -0.480377
v 0.431522 2.168357 -0.419567
v 0.431522 2.126057 -0.419567
v 0.501489 2.126057 -0.480377
v 0.431522 2.168357 -0.419567
v 0.460558 2.168357 -0.387007
v 0.460558 2.125957 -0.387007
v 0.431522 2.126057 -0.419567
v 0.206690 2.166257 -0.202240
v 0.490193 2.166257 -0.440724
v 0.503300 2.134157 -0.425989
v 0.219797 2.134157 -0.187504
v 0.477087 2.134157 -0.455460
v 0.193583 2.134157 -0.216975
v 0.490193 2.166257 -0.440724
v 0.206690 2.166257 -0.202240
v 0.192540 2.181657 -0.171607
v 0.191982 2.463157 -0.171812
v 0.221657 2.463757 -0.195127
v 0.222076 2.182257 -0.194972
v 0.184653 2.462557 -0.208660
v 0.185211 2.181057 -0.208454
v 0.191982 2.463157 -0.171812
v 0.192540 2.181657 -0.171607
v 0.232084 2.409357 -0.219963
v 0.232084 2.466057 -0.219963
v 0.193304 2.465957 -0.234265
v 0.193304 2.409357 -0.234265
v 0.205481 2.409357 -0.147827
v 0.205481 2.466057 -0.147827
v 0.242038 2.466057 -0.176912
v 0.242038 2.409457 -0.176912
v 0.232084 2.466057 -0.219963
v 0.232084 2.409357 -0.219963
v 0.157921 2.409257 -0.207934
v 0.166701 2.465957 -0.162129
v 0.166701 2.409357 -0.162129
v 0.157781 2.465957 -0.207985
v 0.193304 2.409357 -0.234265
v 0.193304 2.465957 -0.234265
v 0.166701 2.409357 -0.162129
v 0.166701 2.465957 -0.162129
v 0.205481 2.466057 -0.147827
v 0.205481 2.409357 -0.147827
v 0.205481 2.409357 -0.147827
v 0.242038 2.409457 -0.176912
v 0.232084 2.409357 -0.219963
v 0.193304 2.409357 -0.234265
v 0.166701 2.409357 -0.162129
v 0.157921 2.409257 -0.207934
v 0.232084 2.466057 -0.219963
v 0.242038 2.466057 -0.176912
v 0.205481 2.466057 -0.147827
v 0.193304 2.465957 -0.234265
v 0.166701 2.465957 -0.162129
v 0.157781 2.465957 -0.207985
v 0.248655 2.190257 -0.417011
v 0.272653 2.219257 -0.574899
v 0.272514 2.190157 -0.574951
v 0.241708 2.218957 -0.373250
v 0.241708 2.077957 -0.373250
v 0.248655 2.107257 -0.417011
v 0.272514 2.107357 -0.574951
v 0.272653 2.078257 -0.574899
v -0.046020 2.373457 -0.103545
v 0.116242 2.373457 -0.027884
v 0.068584 2.373757 0.074273
v -0.093678 2.373757 -0.001388
v -0.093678 2.373757 -0.001388
v -0.109687 2.226757 0.032998
v -0.030010 2.226457 -0.137932
v -0.046020 2.373457 -0.103545
v 0.068584 2.373757 0.074273
v 0.052574 2.226757 0.108659
v -0.109687 2.226757 0.032998
v -0.093678 2.373757 -0.001388
v 0.116242 2.373457 -0.027884
v 0.132251 2.226457 -0.062271
v 0.052574 2.226757 0.108659
v 0.068584 2.373757 0.074273
v -0.046020 2.373457 -0.103545
v -0.030010 2.226457 -0.137932
v 0.132251 2.226457 -0.062271
v 0.116242 2.373457 -0.027884
v -0.443742 2.396357 -0.197753
v -0.443742 2.323957 -0.197753
v -0.421555 2.323957 -0.245454
v -0.421555 2.396257 -0.245454
v 0.466306 2.396257 0.168481
v 0.466306 2.323957 0.168481
v 0.444119 2.323957 0.216181
v 0.444119 2.396357 0.216181
v -0.421555 2.396257 -0.245454
v -0.421555 2.323957 -0.245454
v -0.107333 2.323857 -0.168041
v -0.107333 2.396157 -0.168041
v 0.205005 2.323857 -0.022351
v 0.205005 2.396157 -0.022351
v 0.466306 2.323957 0.168481
v 0.466306 2.396257 0.168481
v -0.182441 2.396457 -0.006921
v -0.443742 2.323957 -0.197753
v -0.443742 2.396357 -0.197753
v -0.182441 2.324057 -0.006921
v 0.129897 2.396457 0.138768
v 0.129897 2.324057 0.138768
v 0.444119 2.396357 0.216181
v 0.444119 2.323957 0.216181
v -0.417696 2.323957 -0.214666
v -0.417696 2.396357 -0.214666
v -0.113390 2.396157 -0.146032
v -0.113390 2.323857 -0.146032
v 0.192055 2.396157 -0.003567
v 0.192055 2.323857 -0.003567
v 0.440260 2.396357 0.185394
v 0.440260 2.323957 0.185394
v -0.169352 2.324057 -0.025654
v -0.417696 2.396357 -0.214666
v -0.417696 2.323957 -0.214666
v -0.169352 2.396457 -0.025654
v 0.135814 2.324057 0.116708
v 0.135814 2.396457 0.116708
v 0.440260 2.323957 0.185394
v 0.440260 2.396357 0.185394
v -0.076536 2.308557 0.086198
v 0.032154 2.308557 -0.146646
v 0.098960 2.308757 -0.115521
v -0.009591 2.308757 0.117374
v -0.009591 2.308757 0.117374
v 0.013003 2.227857 0.127869
v -0.098954 2.227757 0.075654
v -0.076536 2.308557 0.086198
v 0.098960 2.308757 -0.115521
v 0.121517 2.227857 -0.104926
v 0.013003 2.227857 0.127869
v -0.009591 2.308757 0.117374
v 0.032154 2.308557 -0.146646
v 0.009597 2.227757 -0.157241
v 0.121517 2.227857 -0.104926
v 0.098960 2.308757 -0.115521
v -0.076536 2.308557 0.086198
v -0.098954 2.227757 0.075654
v 0.009597 2.227757 -0.157241
v 0.032154 2.308557 -0.146646
v 0.445216 2.380557 0.186994
v 1.334957 2.380557 0.601849
v 1.327285 2.348457 0.620075
v 0.437404 2.348457 0.205169
v 1.342732 2.348457 0.583775
v 0.452991 2.348457 0.168920
v 1.334957 2.380557 0.601849
v 0.445216 2.380557 0.186994
v -0.423046 2.380557 -0.217777
v -1.321743 2.348457 -0.615221
v -1.312750 2.380557 -0.632733
v -0.431900 2.348457 -0.200215
v -1.303896 2.348457 -0.650295
v -0.414155 2.348457 -0.235440
v -1.312750 2.380557 -0.632733
v -0.423046 2.380557 -0.217777
v 0.142068 1.935657 0.049474
v 0.117220 1.903757 0.045090
v -0.108512 1.903757 0.005319
v -0.133360 1.935657 0.000936
v 0.117220 1.967457 0.045090
v -0.108512 1.967457 0.005319
v -0.119328 1.935357 -0.078795
v -0.094480 1.903557 -0.074411
v 0.131253 1.903557 -0.034641
v 0.156240 1.935357 -0.030206
v -0.094480 1.967157 -0.074411
v 0.131253 1.967157 -0.034641
v -0.094480 1.967157 -0.074411
v -0.133360 1.935657 0.000936
v -0.119328 1.935357 -0.078795
v -0.108512 1.967457 0.005319
v 0.117220 1.967457 0.045090
v 0.131253 1.967157 -0.034641
v 0.156240 1.935357 -0.030206
v 0.142068 1.935657 0.049474
v -0.119328 1.935357 -0.078795
v -0.133360 1.935657 0.000936
v -0.108512 1.903757 0.005319
v -0.094480 1.903557 -0.074411
v 0.117220 1.903757 0.045090
v 0.131253 1.903557 -0.034641
v 0.142068 1.935657 0.049474
v 0.156240 1.935357 -0.030206
v 0.197101 2.177257 0.063965
v 0.197101 2.116357 0.063965
v 0.088128 2.077957 0.235700
v 0.088128 2.216357 0.235700
v 0.088128 2.077957 0.235700
v -0.004824 2.077957 0.205859
v -0.004824 2.216357 0.205859
v 0.088128 2.216357 0.235700
v -0.004824 2.077957 0.205859
v 0.176548 2.116657 0.047507
v 0.176548 2.177657 0.047507
v -0.004824 2.216357 0.205859
v 0.176548 2.116657 0.047507
v 0.197101 2.116357 0.063965
v 0.197101 2.177257 0.063965
v 0.176548 2.177657 0.047507
v 0.197101 2.177257 0.063965
v 0.088128 2.216357 0.235700
v -0.004824 2.216357 0.205859
v 0.176548 2.177657 0.047507
v 0.088128 2.077957 0.235700
v 0.197101 2.116357 0.063965
v 0.176548 2.116657 0.047507
v -0.004824 2.077957 0.205859
v -0.174385 2.177257 -0.095799
v -0.174385 2.116357 -0.095799
v -0.065411 2.077957 -0.267533
v -0.065411 2.216357 -0.267533
v -0.065411 2.077957 -0.267533
v 0.027540 2.077957 -0.237693
v 0.027540 2.216357 -0.237693
v -0.065411 2.216357 -0.267533
v 0.027540 2.077957 -0.237693
v -0.153831 2.116657 -0.079341
v -0.153831 2.177657 -0.079341
v 0.027540 2.216357 -0.237693
v -0.153831 2.116657 -0.079341
v -0.174385 2.116357 -0.095799
v -0.174385 2.177257 -0.095799
v -0.153831 2.177657 -0.079341
v -0.174385 2.177257 -0.095799
v -0.065411 2.216357 -0.267533
v 0.027540 2.216357 -0.237693
v -0.153831 2.177657 -0.079341
v -0.065411 2.077957 -0.267533
v -0.174385 2.116357 -0.095799
v -0.153831 2.116657 -0.079341
v 0.027540 2.077957 -0.237693
v 0.325684 2.388557 0.117076
v 0.325684 2.334557 0.117076
v 0.314281 2.334557 0.141552
v 0.314281 2.388657 0.141552
v 0.314281 2.388657 0.141552
v 0.314281 2.334557 0.141552
v 0.093846 2.334657 0.098158
v 0.093846 2.388757 0.098158
v 0.150855 2.388557 -0.023769
v 0.150855 2.334457 -0.023769
v 0.325684 2.334557 0.117076
v 0.325684 2.388557 0.117076
v 0.093846 2.388757 0.098158
v 0.033309 2.388657 0.069800
v 0.259479 2.388657 0.101082
v 0.314281 2.388657 0.141552
v 0.325684 2.388557 0.117076
v 0.090282 2.388557 -0.052027
v 0.150855 2.388557 -0.023769
v 0.314281 2.334557 0.141552
v 0.033309 2.334657 0.069800
v 0.093846 2.334657 0.098158
v 0.259479 2.334557 0.101082
v 0.325684 2.334557 0.117076
v 0.150855 2.334457 -0.023769
v 0.090282 2.334457 -0.052027
v 0.259479 2.334557 0.101082
v 0.259479 2.388657 0.101082
v 0.033309 2.388657 0.069800
v 0.033309 2.334657 0.069800
v 0.090282 2.334457 -0.052027
v 0.090282 2.388557 -0.052027
v 0.259479 2.388657 0.101082
v 0.259479 2.334557 0.101082
v 0.186162 2.170857 0.066987
v 0.243447 2.377557 0.083105
v 0.175246 2.169757 0.051466
v 0.254223 2.378657 0.098575
v 0.167451 2.170357 0.068736
v 0.235512 2.378157 0.100324
v 0.175246 2.169757 0.051466
v 0.243447 2.377557 0.083105
v -0.292656 2.388557 -0.171284
v -0.304060 2.388657 -0.146809
v -0.304060 2.334557 -0.146809
v -0.292656 2.334557 -0.171284
v -0.304060 2.388657 -0.146809
v -0.129092 2.388757 -0.005912
v -0.129092 2.334657 -0.005912
v -0.304060 2.334557 -0.146809
v -0.072259 2.388557 -0.127790
v -0.292656 2.388557 -0.171284
v -0.292656 2.334557 -0.171284
v -0.072259 2.334457 -0.127790
v -0.129092 2.388757 -0.005912
v -0.237854 2.388657 -0.130815
v -0.068518 2.388657 0.022345
v -0.304060 2.388657 -0.146809
v -0.292656 2.388557 -0.171284
v -0.011685 2.388557 -0.099533
v -0.072259 2.388557 -0.127790
v -0.304060 2.334557 -0.146809
v -0.129092 2.334657 -0.005912
v -0.068518 2.334657 0.022345
v -0.237854 2.334557 -0.130815
v -0.292656 2.334557 -0.171284
v -0.072259 2.334457 -0.127790
v -0.011685 2.334457 -0.099533
v -0.237854 2.334557 -0.130815
v -0.068518 2.334657 0.022345
v -0.068518 2.388657 0.022345
v -0.237854 2.388657 -0.130815
v -0.011685 2.334457 -0.099533
v -0.237854 2.334557 -0.130815
v -0.237854 2.388657 -0.130815
v -0.011685 2.388557 -0.099533
v -0.153835 2.170357 -0.081050
v -0.232525 2.378657 -0.128508
v -0.221786 2.378157 -0.112938
v -0.164574 2.170857 -0.096619
v -0.213572 2.377557 -0.130054
v -0.145621 2.169757 -0.098166
v -0.221786 2.378157 -0.112938
v -0.153835 2.170357 -0.081050
v 0.081840 1.467257 0.017702
v 0.010943 1.896457 -0.014363
v 0.061867 1.467257 -0.072521
v 0.062089 0.719057 -0.073122
v 0.082751 0.719057 0.017810
v 0.002590 1.467257 0.062000
v 0.010943 1.896457 -0.014363
v 0.002964 0.719057 0.062706
v -0.027564 1.467257 -0.081829
v 0.010943 1.896457 -0.014363
v -0.065617 1.467257 0.002018
v -0.066015 0.719057 0.002668
v -0.027945 0.719057 -0.082084
v -0.065617 1.467257 0.002018
v 0.010943 1.896457 -0.014363
v 0.002590 1.467257 0.062000
v 0.002964 0.719057 0.062706
v -0.066015 0.719057 0.002668
v 0.061867 1.467257 -0.072521
v 0.010943 1.896457 -0.014363
v -0.027564 1.467257 -0.081829
v -0.027945 0.719057 -0.082084
v 0.062089 0.719057 -0.073122
v 0.066552 1.250957 0.160137
v 0.158513 1.250957 0.094691
v 0.194183 1.250957 -0.012343
v 0.160345 1.250957 -0.119971
v -0.046240 1.250957 0.159172
v 0.069551 1.250957 -0.187031
v -0.136858 1.250957 0.092064
v -0.043204 1.250957 -0.188096
v -0.170872 1.250957 -0.015516
v -0.135063 1.250957 -0.122498
v 0.129338 1.448257 0.163488
v 0.103434 1.416457 0.143919
v 0.103434 1.480157 0.143919
v -0.045962 1.416357 0.061735
v -0.045962 1.479957 0.061735
v -0.144125 1.416157 -0.089761
v -0.144125 1.479857 -0.089761
v -0.170279 1.448057 -0.109081
v 0.103434 1.480157 0.143919
v 0.193311 1.448057 0.077249
v 0.129338 1.448257 0.163488
v 0.167157 1.479857 0.057930
v -0.045962 1.479957 0.061735
v 0.068994 1.479957 -0.093566
v -0.144125 1.479857 -0.089761
v -0.080402 1.480157 -0.175750
v -0.170279 1.448057 -0.109081
v -0.106306 1.448257 -0.195319
v 0.129338 1.448257 0.163488
v 0.193311 1.448057 0.077249
v 0.167157 1.416157 0.057930
v 0.103434 1.416457 0.143919
v 0.068994 1.416357 -0.093566
v -0.045962 1.416357 0.061735
v -0.080402 1.416457 -0.175750
v -0.144125 1.416157 -0.089761
v -0.106306 1.448257 -0.195319
v -0.170279 1.448057 -0.109081
v 0.158699 1.427357 0.048209
v 0.309180 2.351857 0.103819
v 0.160055 1.451057 0.018320
v 0.311487 2.352457 0.138814
v 0.133333 1.427057 0.028042
v 0.158699 1.427357 0.048209
v 0.282267 2.351957 0.123941
v 0.160055 1.451057 0.018320
v 0.309180 2.351857 0.103819
v 0.151964 1.248557 0.116746
v 0.178350 1.248557 0.081292
v 0.163384 1.240857 0.070310
v 0.137174 1.240857 0.105714
v 0.167157 1.479857 0.057930
v 0.167157 1.416157 0.057930
v 0.193311 1.448057 0.077249
v 0.068994 1.479957 -0.093566
v 0.068994 1.416357 -0.093566
v -0.080402 1.480157 -0.175750
v -0.080402 1.416457 -0.175750
v -0.106306 1.448257 -0.195319
v 0.137174 1.240857 0.105714
v 0.113753 1.446657 0.146017
v 0.128748 1.446957 0.157352
v 0.151964 1.248557 0.116746
v 0.163384 1.240857 0.070310
v 0.171825 1.446657 0.067618
v 0.113753 1.446657 0.146017
v 0.137174 1.240857 0.105714
v 0.178350 1.248557 0.081292
v 0.187033 1.446957 0.078804
v 0.171825 1.446657 0.067618
v 0.163384 1.240857 0.070310
v 0.151964 1.248557 0.116746
v 0.128748 1.446957 0.157352
v 0.187033 1.446957 0.078804
v 0.178350 1.248557 0.081292
v -0.135806 1.427357 -0.080092
v -0.286464 2.351857 -0.135653
v -0.137022 1.451057 -0.050152
v -0.288771 2.352457 -0.170648
v -0.110301 1.427057 -0.059873
v -0.135806 1.427357 -0.080092
v -0.259551 2.351957 -0.155775
v -0.137022 1.451057 -0.050152
v -0.286464 2.351857 -0.135653
v -0.128895 1.248557 -0.148677
v -0.155318 1.248557 -0.113124
v -0.140492 1.240857 -0.102192
v -0.114142 1.240857 -0.137546
v -0.114142 1.240857 -0.137546
v -0.090721 1.446657 -0.177849
v -0.105716 1.446957 -0.189183
v -0.128895 1.248557 -0.148677
v -0.140492 1.240857 -0.102192
v -0.148793 1.446657 -0.099449
v -0.090721 1.446657 -0.177849
v -0.114142 1.240857 -0.137546
v -0.155318 1.248557 -0.113124
v -0.164001 1.446957 -0.110635
v -0.148793 1.446657 -0.099449
v -0.140492 1.240857 -0.102192
v -0.128895 1.248557 -0.148677
v -0.105716 1.446957 -0.189183
v -0.164001 1.446957 -0.110635
v -0.155318 1.248557 -0.113124
v 1.319694 2.363657 0.595538
v 1.285165 2.435857 0.579162
v 1.315538 2.365457 0.513993
v 1.254543 2.361857 0.644579
v 1.285018 2.291557 0.579562
v -1.231822 2.365257 -0.594351
v -1.266528 2.437457 -0.610679
v -1.236155 2.367057 -0.675847
v -1.297011 2.363457 -0.545209
v -1.266676 2.293157 -0.610278
v -0.421555 2.396257 -0.245454
v -0.417696 2.396357 -0.214666
v -0.443742 2.396357 -0.197753
v -0.107333 2.396157 -0.168041
v -0.169352 2.396457 -0.025654
v -0.113390 2.396157 -0.146032
v -0.182441 2.396457 -0.006921
v 0.205005 2.396157 -0.022351
v 0.135814 2.396457 0.116708
v 0.192055 2.396157 -0.003567
v 0.129897 2.396457 0.138768
v 0.466306 2.396257 0.168481
v 0.440260 2.396357 0.185394
v 0.444119 2.396357 0.216181
v -0.443742 2.323957 -0.197753
v -0.417696 2.323957 -0.214666
v -0.421555 2.323957 -0.245454
v -0.182441 2.324057 -0.006921
v -0.113390 2.323857 -0.146032
v -0.169352 2.324057 -0.025654
v -0.107333 2.323857 -0.168041
v 0.129897 2.324057 0.138768
v 0.192055 2.323857 -0.003567
v 0.135814 2.324057 0.116708
v 0.205005 2.323857 -0.022351
v 0.444119 2.323957 0.216181
v 0.440260 2.323957 0.185394
v 0.466306 2.323957 0.168481
v 1.285165 2.435857 0.579162
v 1.250489 2.363657 0.563186
v 1.315538 2.365457 0.513993
v 1.254543 2.361857 0.644579
v 1.285018 2.291557 0.579562
v -1.266528 2.437457 -0.610679
v -1.301065 2.365257 -0.626602
v -1.236155 2.367057 -0.675847
v -1.297011 2.363457 -0.545209
v -1.266676 2.293157 -0.610278
v 0.158513 1.250957 0.094691
v 0.142094 1.317757 0.082490
v 0.173823 1.317757 -0.012567
v 0.066552 1.250957 0.160137
v 0.194183 1.250957 -0.012343
v 0.060413 1.317757 0.140687
v -0.046240 1.250957 0.159172
v 0.143765 1.317757 -0.108103
v 0.160345 1.250957 -0.119971
v -0.039741 1.317757 0.139830
v -0.136858 1.250957 0.092064
v 0.063191 1.317757 -0.167637
v 0.069551 1.250957 -0.187031
v -0.120279 1.317757 0.080195
v -0.170872 1.250957 -0.015516
v -0.037103 1.317757 -0.168546
v -0.043204 1.250957 -0.188096
v -0.150476 1.317757 -0.015392
v -0.135063 1.250957 -0.122498
v -0.118608 1.317757 -0.110397
vn 0.4163 -0.0004 -0.9092
vn 0.4163 -0.0010 -0.9092
vn -0.4163 -0.0004 0.9092
vn -0.4163 -0.0009 0.9092
vn -0.2064 -0.8025 0.5598
vn -0.2064 0.8025 0.5598
vn 0.4463 -0.0000 0.8949
vn -0.9041 -0.0000 0.4274
vn 0.2064 -0.8025 -0.5598
vn 0.2064 0.8025 -0.5598
vn -0.4463 -0.0000 -0.8949
vn 0.9041 -0.0000 -0.4274
vn -0.9202 -0.0024 -0.3916
vn 0.8913 -0.0023 0.4535
vn 0.5082 -0.1266 0.8519
vn 0.8514 -0.1519 0.5021
vn 0.2169 0.0023 -0.9762
vn 0.4516 -0.0493 -0.8908
vn 0.4445 -0.0477 -0.8945
vn 0.2090 0.0040 -0.9779
vn -0.8934 0.1474 0.4244
vn -0.9869 0.1580 -0.0342
vn -0.9872 0.1581 -0.0230
vn -0.8832 0.1460 0.4456
vn -0.1679 0.6936 0.7005
vn -0.2708 -0.7688 0.5794
vn -0.5085 -0.1261 -0.8518
vn -0.8472 -0.1508 -0.5094
vn -0.2179 0.0025 0.9760
vn -0.4516 -0.0488 0.8909
vn -0.4445 -0.0471 0.8946
vn -0.2100 0.0042 0.9777
vn 0.8939 0.1464 -0.4237
vn 0.9871 0.1569 0.0334
vn 0.9873 0.1570 0.0222
vn 0.8838 0.1449 -0.4449
vn 0.1686 0.6934 -0.7006
vn 0.2708 -0.7688 -0.5794
vn 0.0313 -0.9983 0.0492
vn -0.0573 -0.9983 0.0075
vn -0.4417 0.7126 0.5450
vn 0.4412 0.7123 -0.5459
vn -0.9764 -0.0000 0.2160
vn -0.4882 -0.0000 -0.8727
vn 0.9112 -0.0000 0.4119
vn 0.6600 -0.0000 -0.7513
vn -0.1035 -0.0000 0.9946
vn -0.0007 -1.0000 0.0015
vn -0.0006 -1.0000 0.0015
vn 0.4105 -0.0000 -0.9119
vn -0.4104 -0.0000 0.9119
vn -0.0004 1.0000 -0.0017
vn 0.0030 1.0000 -0.0010
vn 0.0010 1.0000 -0.0012
vn 0.0001 1.0000 -0.0014
vn 0.3850 -0.0000 0.9229
vn 0.9131 -0.0000 0.4077
vn 0.9449 -0.0000 -0.3275
vn -0.3850 -0.0000 -0.9229
vn -0.9128 -0.0000 -0.4085
vn -0.9449 -0.0000 0.3275
vn -0.8908 0.3140 -0.3285
vn -0.5386 -0.8188 -0.1986
vn 0.8895 0.3181 0.3280
vn 0.5454 -0.8137 0.2011
vn -0.0020 1.0000 -0.0007
vn 0.3460 -0.0000 -0.9382
vn -0.3460 -0.0000 0.9382
vn 0.7667 -0.5325 0.3587
vn 0.7665 -0.5328 0.3586
vn 0.1471 -0.9867 0.0689
vn 0.1469 -0.9868 0.0687
vn 0.0121 -0.9999 0.0057
vn 0.0127 -0.9999 0.0060
vn -0.1233 -0.9907 -0.0577
vn -0.1234 -0.9907 -0.0577
vn -0.1234 0.9907 -0.0577
vn -0.1233 0.9907 -0.0577
vn 0.0049 1.0000 0.0023
vn 0.0055 1.0000 0.0026
vn 0.1327 0.9892 0.0621
vn 0.1329 0.9892 0.0622
vn 0.7803 0.5077 0.3651
vn 0.7802 0.5080 0.3650
vn -0.4262 -0.0006 0.9046
vn -0.4262 -0.0020 0.9046
vn -0.4262 -0.0000 0.9047
vn -0.4262 -0.0007 0.9046
vn -0.4261 0.0025 0.9047
vn 0.4163 0.0028 -0.9092
vn 0.4163 0.0025 -0.9092
vn 0.4162 0.0006 -0.9093
vn 0.4162 -0.0005 -0.9093
vn -0.7666 -0.5325 -0.3587
vn -0.7665 -0.5328 -0.3586
vn -0.1471 -0.9867 -0.0689
vn -0.1469 -0.9868 -0.0687
vn -0.0121 -0.9999 -0.0057
vn -0.0127 -0.9999 -0.0060
vn 0.1234 -0.9907 0.0577
vn 0.1234 0.9907 0.0577
vn 0.1233 0.9907 0.0577
vn -0.0049 1.0000 -0.0023
vn -0.0055 1.0000 -0.0026
vn -0.1327 0.9892 -0.0621
vn -0.1329 0.9892 -0.0622
vn -0.7803 0.5078 -0.3651
vn -0.7802 0.5080 -0.3650
vn 0.4262 -0.0006 -0.9046
vn 0.4261 -0.0020 -0.9047
vn 0.4261 -0.0000 -0.9047
vn 0.4262 -0.0007 -0.9046
vn 0.4261 0.0025 -0.9047
vn -0.4163 0.0028 0.9092
vn -0.4163 0.0025 0.9092
vn -0.4162 0.0006 0.9093
vn -0.4162 -0.0005 0.9093
vn -0.7813 -0.0000 -0.6241
vn 0.9996 -0.0000 0.0298
vn 0.2631 -0.0000 0.9648
vn -0.8214 -0.0000 0.5703
vn 0.3441 -0.0000 -0.9389
vn -0.0000 -1.0000 -0.0000
vn -0.0000 1.0000 -0.0000
vn 0.0002 -1.0000 0.0008
vn -0.0000 -1.0000 0.0012
vn -0.0005 -1.0000 0.0014
vn 0.0002 -1.0000 0.0004
vn -0.9377 0.0006 -0.3475
vn -0.9380 0.0056 -0.3466
vn -0.9380 0.0051 -0.3467
vn -0.9380 0.0101 -0.3465
vn -0.9377 -0.0006 -0.3475
vn -0.9379 -0.0055 -0.3469
vn -0.9382 -0.0056 -0.3461
vn -0.9382 -0.0051 -0.3460
vn 0.9382 -0.0000 0.3460
vn 0.0002 1.0000 -0.0007
vn -0.0002 1.0000 -0.0008
vn -0.0069 1.0000 -0.0025
vn -0.0002 1.0000 0.0006
vn -0.0002 -1.0000 0.0006
vn 0.1471 -0.0000 0.9891
vn 0.7541 -0.0000 -0.6567
vn 0.2263 -0.9700 0.0891
vn 0.2272 -0.9696 0.0908
vn 0.2263 -0.9700 0.0890
vn 0.2259 -0.9702 0.0882
vn 0.2296 0.9702 0.0780
vn 0.2273 0.9706 0.0790
vn 0.2299 0.9701 0.0779
vn 0.2345 0.9691 0.0759
vn 0.7463 -0.0000 -0.6656
vn 0.6560 -0.0000 0.7548
vn -0.0015 1.0000 -0.0017
vn -0.6560 -0.0000 -0.7548
vn -0.7463 -0.0000 0.6656
vn 0.5485 -0.5233 0.6521
vn -0.5485 -0.5233 -0.6521
vn 0.6202 -0.0014 0.7844
vn 0.6178 -0.0018 0.7863
vn 0.6180 -0.0018 0.7862
vn 0.6204 -0.0014 0.7843
vn 0.3435 -0.0000 -0.9392
vn -0.9808 0.0018 0.1951
vn -0.5960 0.0013 -0.8029
vn -0.5947 -0.0000 -0.8039
vn -0.5957 0.0009 -0.8032
vn -0.5970 0.0022 -0.8022
vn -0.9819 0.0010 0.1894
vn -0.9816 0.0023 0.1909
vn -0.9818 0.0013 0.1898
vn -0.9821 -0.0000 0.1883
vn 0.9743 -0.0000 -0.2253
vn 0.6226 -0.0000 0.7825
vn 0.0010 1.0000 0.0004
vn 0.0039 1.0000 0.0014
vn -0.0017 -1.0000 -0.0006
vn 0.9881 -0.0038 0.1539
vn 0.9887 0.0035 0.1496
vn 0.9888 0.0050 0.1494
vn 0.9879 -0.0029 0.1549
vn 0.9880 0.0027 0.1542
vn 0.9882 0.0062 0.1528
vn 0.9885 -0.0035 0.1515
vn 0.9884 -0.0050 0.1517
vn 0.7813 -0.0000 0.6241
vn -0.9996 -0.0000 -0.0298
vn -0.2631 -0.0000 -0.9648
vn 0.8214 -0.0000 -0.5703
vn -0.3441 -0.0000 0.9389
vn -0.0002 -1.0000 -0.0008
vn -0.0000 -1.0000 -0.0012
vn 0.0005 -1.0000 -0.0014
vn -0.0002 -1.0000 -0.0004
vn 0.9377 0.0006 0.3475
vn 0.9380 0.0056 0.3466
vn 0.9380 0.0051 0.3467
vn 0.9380 0.0101 0.3465
vn 0.9377 -0.0006 0.3475
vn 0.9379 -0.0055 0.3469
vn 0.9382 -0.0056 0.3461
vn 0.9382 -0.0051 0.3460
vn -0.9382 -0.0000 -0.3460
vn 0.0002 1.0000 0.0005
vn 0.0007 1.0000 0.0013
vn 0.0001 1.0000 0.0009
vn -0.0002 1.0000 0.0007
vn 0.0002 1.0000 -0.0006
vn 0.0002 -1.0000 -0.0006
vn -0.1472 -0.0000 -0.9891
vn -0.1471 -0.0000 -0.9891
vn -0.7541 -0.0000 0.6567
vn -0.2263 -0.9700 -0.0891
vn -0.2272 -0.9696 -0.0908
vn -0.2263 -0.9700 -0.0890
vn -0.2259 -0.9702 -0.0882
vn -0.2296 0.9702 -0.0780
vn -0.2273 0.9706 -0.0790
vn -0.2299 0.9701 -0.0779
vn -0.2345 0.9691 -0.0759
vn 0.0015 1.0000 0.0017
vn -0.6202 -0.0014 -0.7845
vn -0.6178 -0.0018 -0.7863
vn -0.6180 -0.0018 -0.7862
vn -0.6204 -0.0014 -0.7843
vn -0.3435 -0.0000 0.9392
vn 0.9808 0.0018 -0.1951
vn -0.6226 -0.0000 -0.7825
vn -0.9743 -0.0000 0.2253
vn 0.9819 0.0010 -0.1894
vn 0.9818 0.0013 -0.1898
vn 0.9821 -0.0000 -0.1883
vn 0.9816 0.0023 -0.1909
vn 0.5960 0.0013 0.8029
vn 0.5957 0.0009 0.8032
vn 0.5970 0.0022 0.8022
vn 0.5947 -0.0000 0.8039
vn -0.0010 1.0000 -0.0004
vn -0.0039 1.0000 -0.0014
vn 0.0017 -1.0000 0.0006
vn -0.9881 -0.0038 -0.1539
vn -0.9887 0.0035 -0.1496
vn -0.9888 0.0050 -0.1494
vn -0.9879 -0.0029 -0.1549
vn -0.9880 0.0027 -0.1542
vn -0.9882 0.0062 -0.1528
vn -0.9885 -0.0035 -0.1515
vn -0.9884 -0.0050 -0.1517
vn -0.0011 -1.0000 0.0024
vn 0.9063 -0.0000 0.4226
vn 0.9064 0.0001 0.4225
vn 0.9062 -0.0002 0.4228
vn 0.4092 -0.2498 -0.8776
vn -0.9063 -0.0000 -0.4226
vn -0.9064 0.0001 -0.4225
vn -0.9062 -0.0002 -0.4228
vn -0.4092 -0.2499 0.8776
vn -0.4092 -0.2498 0.8776
vn 0.9067 -0.0000 0.4217
vn -0.9067 -0.0000 -0.4217
vn -0.2392 -0.0000 0.9710
vn -0.3326 -0.0000 0.9431
vn -0.3325 -0.0000 0.9431
vn -0.5086 -0.0000 0.8610
vn -0.5087 -0.0000 0.8610
vn -0.5898 -0.0000 0.8076
vn 0.5086 -0.0000 -0.8610
vn 0.5898 -0.0000 -0.8076
vn 0.5087 -0.0000 -0.8610
vn 0.3326 -0.0000 -0.9431
vn 0.3325 -0.0000 -0.9431
vn 0.2392 -0.0000 -0.9710
vn 0.2200 -0.0000 -0.9755
vn 0.3232 -0.0000 -0.9463
vn 0.5172 -0.0000 -0.8559
vn 0.6057 -0.0000 -0.7957
vn -0.5172 -0.0000 0.8559
vn -0.6056 -0.0000 0.7957
vn -0.5171 -0.0000 0.8559
vn -0.3233 -0.0000 0.9463
vn -0.2201 -0.0000 0.9755
vn 0.0025 -1.0000 0.0011
vn 0.4225 0.0007 -0.9064
vn 0.4227 0.0005 -0.9063
vn 0.4224 0.0008 -0.9064
vn 0.4222 0.0012 -0.9065
vn -0.8662 -0.2944 -0.4038
vn -0.8662 -0.2943 -0.4038
vn -0.8662 -0.2943 -0.4037
vn -0.4230 -0.0000 0.9061
vn -0.4235 -0.0006 0.9059
vn -0.4229 0.0001 0.9062
vn -0.4223 0.0010 0.9064
vn 0.8664 -0.2935 0.4040
vn 0.8666 -0.2931 0.4039
vn 0.8660 -0.2944 0.4041
vn 0.8659 -0.2947 0.4042
vn 0.3598 -0.5245 -0.7717
vn 0.3599 -0.5242 -0.7718
vn -0.3603 -0.5224 0.7728
vn 0.3604 -0.5223 -0.7729
vn 0.3604 -0.5225 -0.7727
vn -0.3599 -0.5243 0.7717
vn -0.3604 -0.5223 0.7729
vn 0.1735 -0.0000 -0.9848
vn 0.1735 0.0002 -0.9848
vn 0.1736 -0.0001 -0.9848
vn -0.1736 -0.0000 0.9848
vn -0.1735 0.0002 0.9848
vn -0.1736 -0.0008 0.9848
vn -0.1735 0.0010 0.9848
vn 0.7711 -0.6216 0.1380
vn 0.7711 -0.6216 0.1381
vn -0.0006 -1.0000 0.0037
vn -0.0006 -1.0000 0.0036
vn -0.7712 -0.6222 -0.1344
vn -0.7702 -0.6238 -0.1332
vn -0.7706 -0.6231 -0.1337
vn -0.7717 -0.6216 -0.1349
vn 0.7721 0.6212 0.1341
vn 0.7728 0.6204 0.1337
vn 0.7725 0.6207 0.1339
vn 0.7718 0.6216 0.1343
vn 0.0004 1.0000 -0.0024
vn -0.7713 0.6214 -0.1380
vn -0.7700 0.6228 -0.1386
vn -0.7722 0.6204 -0.1375
vn -0.7691 0.6238 -0.1391
vn -0.8444 -0.0000 -0.5358
vn 0.3057 -0.0000 -0.9521
vn 0.6577 -0.0000 0.7533
vn -0.6251 -0.0000 0.7806
vn -0.0990 -0.9864 0.1309
vn -0.0596 -0.9808 0.1855
vn -0.0647 -0.9818 0.1784
vn -0.1108 -0.9872 0.1144
vn -0.0598 0.9829 0.1740
vn -0.1071 0.9826 0.1517
vn -0.0953 0.9829 0.1574
vn -0.0564 0.9828 0.1756
vn 0.8444 -0.0000 0.5358
vn -0.3057 -0.0000 0.9521
vn -0.6577 -0.0000 -0.7533
vn 0.6250 -0.0000 -0.7806
vn 0.0990 -0.9864 -0.1309
vn 0.0596 -0.9808 -0.1855
vn 0.0647 -0.9818 -0.1785
vn 0.1108 -0.9872 -0.1144
vn 0.0598 0.9829 -0.1740
vn 0.1071 0.9826 -0.1517
vn 0.0953 0.9829 -0.1574
vn 0.0564 0.9828 -0.1756
vn -0.9065 -0.0000 -0.4223
vn 0.1932 -0.0000 -0.9812
vn 0.1931 -0.0000 -0.9812
vn -0.6274 -0.0000 0.7787
vn -0.0007 -1.0000 0.0048
vn -0.0007 -1.0000 0.0050
vn -0.0015 -1.0000 0.0022
vn -0.0019 -1.0000 0.0025
vn -0.0022 -1.0000 0.0030
vn -0.0009 -1.0000 0.0012
vn 0.0001 1.0000 -0.0002
vn 0.0007 1.0000 -0.0013
vn 0.0008 1.0000 -0.0017
vn 0.0004 1.0000 -0.0008
vn 0.0006 1.0000 -0.0013
vn 0.0006 1.0000 -0.0014
vn -0.1370 -0.0000 0.9906
vn 0.6710 -0.0000 -0.7415
vn -0.8105 0.1812 0.5570
vn -0.8127 0.1821 0.5534
vn -0.8104 0.1812 0.5571
vn -0.8129 0.1821 0.5533
vn -0.0963 0.1803 -0.9789
vn 0.8526 -0.3397 0.3971
vn 0.8497 -0.3402 0.4029
vn 0.8528 -0.3396 0.3967
vn 0.8495 -0.3402 0.4033
vn 0.9064 -0.0000 0.4223
vn 0.6272 -0.0000 -0.7789
vn -0.1936 -0.0000 0.9811
vn -0.0032 -1.0000 0.0036
vn -0.0007 -1.0000 0.0026
vn -0.0034 -1.0000 0.0038
vn -0.0007 -1.0000 0.0030
vn -0.0009 -1.0000 0.0036
vn -0.0004 -1.0000 0.0014
vn 0.0002 1.0000 -0.0002
vn -0.6708 -0.0000 0.7416
vn 0.1370 -0.0000 -0.9906
vn 0.8123 0.1805 -0.5545
vn 0.8124 0.1806 -0.5545
vn 0.0904 0.1799 0.9795
vn 0.0903 0.1799 0.9795
vn -0.8525 -0.3397 -0.3972
vn -0.9739 -0.0697 0.2158
vn -0.9662 -0.1436 0.2139
vn -0.9740 -0.0697 0.2156
vn -0.9752 -0.0011 0.2212
vn -0.9751 -0.0012 0.2216
vn -0.4868 -0.0703 -0.8707
vn -0.4867 -0.0702 -0.8707
vn -0.4902 -0.0010 -0.8716
vn -0.4828 -0.1443 -0.8638
vn -0.4904 -0.0011 -0.8715
vn 0.9084 -0.0703 0.4121
vn 0.9010 -0.1451 0.4089
vn 0.9084 -0.0702 0.4122
vn 0.9121 -0.0006 0.4100
vn 0.9122 -0.0006 0.4098
vn 0.6586 -0.0703 -0.7492
vn 0.6534 -0.1449 -0.7430
vn 0.6587 -0.0704 -0.7491
vn 0.6568 -0.0010 -0.7540
vn 0.6565 -0.0010 -0.7543
vn -0.1031 -0.0706 0.9922
vn -0.1024 -0.1455 0.9840
vn -0.1033 -0.0706 0.9921
vn -0.0994 -0.0008 0.9950
vn -0.0991 -0.0008 0.9951
vn 0.6028 -0.0000 -0.7979
vn 0.5238 -0.0000 -0.8518
vn 0.6813 -0.0000 -0.7320
vn 0.6811 -0.0000 -0.7322
vn 0.7679 -0.0000 -0.6406
vn 0.7678 -0.0000 -0.6407
vn 0.5942 -0.0000 -0.8043
vn -0.5635 -0.7137 -0.4160
vn -0.5631 -0.7145 -0.4152
vn -0.5637 -0.7133 -0.4165
vn -0.5630 -0.7149 -0.4147
vn -0.0000 -1.0000 0.0007
vn -0.0004 -1.0000 0.0013
vn -0.0004 -1.0000 0.0032
vn -0.0000 -1.0000 -0.0007
vn 0.0004 -1.0000 -0.0013
vn 0.0004 -1.0000 -0.0032
vn 0.5635 -0.7137 0.4160
vn 0.5629 -0.7149 0.4147
vn 0.5631 -0.7145 0.4152
vn 0.5637 -0.7133 0.4165
vn -0.5612 0.7142 -0.4183
vn -0.5617 0.7138 -0.4183
vn -0.5615 0.7140 -0.4183
vn -0.5610 0.7144 -0.4182
vn 0.0007 1.0000 -0.0001
vn 0.0013 1.0000 -0.0006
vn 0.0035 1.0000 -0.0009
vn -0.0007 1.0000 0.0001
vn -0.0013 1.0000 0.0006
vn -0.0035 1.0000 0.0009
vn 0.5612 0.7142 0.4183
vn 0.5615 0.7140 0.4183
vn 0.5610 0.7144 0.4182
vn 0.5617 0.7138 0.4183
vn -0.9847 0.1556 0.0781
vn -0.9857 0.1567 0.0626
vn -0.9847 0.1555 0.0787
vn -0.9857 0.1567 0.0623
vn 0.6185 -0.0250 -0.7854
vn 0.4576 0.0183 -0.8889
vn 0.6223 -0.0262 -0.7823
vn 0.4533 0.0194 -0.8912
vn 0.4667 -0.1652 0.8688
vn 0.5874 -0.1724 0.7907
vn 0.4647 -0.1650 0.8699
vn 0.5894 -0.1725 0.7892
vn -0.3089 0.9231 -0.2290
vn -0.3074 0.9237 -0.2288
vn -0.3080 0.9235 -0.2289
vn -0.3095 0.9229 -0.2291
vn -0.7678 -0.0000 0.6407
vn -0.7679 -0.0000 0.6406
vn -0.5941 -0.0000 0.8044
vn -0.6811 -0.0000 0.7322
vn -0.6813 -0.0000 0.7320
vn -0.5238 -0.0000 0.8518
vn -0.6028 -0.0000 0.7979
vn 0.5089 0.2287 -0.8299
vn 0.5855 0.2195 -0.7804
vn 0.5810 0.2201 -0.7836
vn 0.5024 0.2294 -0.8337
vn 0.8034 -0.0251 0.5949
vn 0.8033 -0.0252 0.5950
vn 0.8033 -0.0251 0.5950
vn 0.8035 -0.0250 0.5948
vn -0.6024 0.0352 0.7974
vn -0.5926 0.0360 0.8047
vn -0.5932 0.0360 0.8043
vn -0.6029 0.0352 0.7970
vn -0.8021 0.0277 -0.5965
vn -0.8027 0.0280 -0.5957
vn -0.8026 0.0279 -0.5958
vn -0.8019 0.0276 -0.5968
vn 0.9844 0.1555 -0.0823
vn 0.9856 0.1569 -0.0627
vn 0.9844 0.1554 -0.0830
vn 0.9857 0.1569 -0.0623
vn -0.6174 -0.0249 0.7863
vn -0.4576 0.0182 0.8890
vn -0.6212 -0.0260 0.7832
vn -0.4533 0.0193 0.8912
vn -0.4668 -0.1653 -0.8688
vn -0.5874 -0.1726 -0.7907
vn -0.4648 -0.1652 -0.8699
vn -0.5894 -0.1727 -0.7892
vn 0.3087 0.9230 0.2299
vn 0.3095 0.9226 0.2301
vn 0.3092 0.9228 0.2300
vn 0.3084 0.9231 0.2298
vn -0.5135 0.2282 0.8272
vn -0.5855 0.2195 0.7804
vn -0.5812 0.2200 0.7834
vn -0.5074 0.2289 0.8308
vn -0.8020 -0.0254 -0.5967
vn -0.8033 -0.0245 -0.5950
vn -0.8031 -0.0247 -0.5954
vn -0.8015 -0.0258 -0.5974
vn 0.6042 0.0350 -0.7960
vn 0.5926 0.0360 -0.8047
vn 0.5933 0.0360 -0.8042
vn 0.6048 0.0350 -0.7956
vn 0.8024 0.0277 0.5961
vn 0.8028 0.0278 0.5957
vn 0.8027 0.0278 0.5958
vn 0.8023 0.0276 0.5963
vn -0.9048 -0.4244 0.0367
vn -0.5376 -0.4226 -0.7297
vn -0.9045 0.4228 0.0554
vn -0.5520 0.4245 -0.7177
vn -0.9040 -0.4258 0.0387
vn -0.5379 -0.4234 -0.7290
vn -0.9037 0.4242 0.0574
vn -0.5523 0.4254 -0.7170
vn -0.0002 -1.0000 0.0033
vn 0.0004 -1.0000 0.0022
vn 0.0007 -1.0000 0.0011
vn -0.0003 -1.0000 -0.0000
vn 0.0001 -1.0000 0.0001
vn -0.0003 -1.0000 -0.0001
vn -0.0001 -1.0000 -0.0000
vn 0.0001 -1.0000 0.0002
vn -0.0002 -1.0000 -0.0000
vn -0.0022 -1.0000 0.0023
vn -0.0019 -1.0000 0.0012
vn -0.0013 -1.0000 0.0002
vn -0.0001 1.0000 -0.0002
vn 0.0001 1.0000 -0.0001
vn 0.0002 1.0000 -0.0000
vn -0.0001 1.0000 -0.0001
vn 0.0001 1.0000 -0.0000
vn 0.5536 -0.4244 0.7165
vn 0.9047 -0.4225 -0.0544
vn 0.5389 0.4235 0.7282
vn 0.9045 0.4251 -0.0356
vn 0.5550 -0.4234 0.7160
vn 0.9054 -0.4211 -0.0544
vn 0.5404 0.4225 0.7277
vn 0.9051 0.4236 -0.0357
vn -0.9109 -0.2791 -0.3039
vn -0.9108 -0.2794 -0.3040
vn -0.9110 -0.2790 -0.3038
vn -0.5570 -0.2792 -0.7821
vn -0.5569 -0.2794 -0.7822
vn -0.5567 -0.2797 -0.7822
vn -0.9111 -0.2787 -0.3036
vn -0.5572 -0.2789 -0.7821
vn 0.0082 -0.2789 -0.9603
vn -0.9162 -0.2784 0.2882
vn -0.9162 -0.2783 0.2883
vn -0.9162 -0.2785 0.2881
vn -0.9162 -0.2786 0.2881
vn 0.5715 -0.2790 -0.7717
vn -0.5706 -0.2788 0.7724
vn -0.5707 -0.2789 0.7724
vn -0.5706 -0.2787 0.7725
vn -0.5706 -0.2786 0.7725
vn 0.5715 -0.2790 -0.7718
vn 0.9157 -0.2789 -0.2894
vn 0.9157 -0.2788 -0.2894
vn 0.9157 -0.2787 -0.2895
vn -0.0088 -0.2798 0.9600
vn -0.0087 -0.2796 0.9601
vn -0.0089 -0.2799 0.9600
vn -0.0091 -0.2801 0.9599
vn 0.9157 -0.2790 -0.2893
vn 0.9105 -0.2792 0.3051
vn 0.9106 -0.2790 0.3050
vn 0.9107 -0.2786 0.3048
vn 0.5578 -0.2794 0.7815
vn 0.5576 -0.2797 0.7816
vn 0.5579 -0.2793 0.7815
vn 0.5581 -0.2790 0.7815
vn 0.9103 -0.2795 0.3053
vt 0.317600 -0.483500
vt 0.317600 -0.493500
vt 0.317600 -0.498100
vt 0.317600 -0.498600
vt 0.267600 -0.441300
vt 0.264700 -0.445500
vt 0.261600 -0.441400
vt 0.261700 -0.441300
vt 0.254900 -0.441300
vt 0.258300 -0.445500
vt 0.261600 -0.441300
vt 0.255000 -0.441300
vt 0.264800 -0.445500
vt 0.236700 -0.453900
vt 0.233300 -0.453900
vt 0.235000 -0.456900
vt 0.237000 -0.454500
vt 0.233500 -0.454500
vt 0.235200 -0.457500
vt 0.232900 -0.414700
vt 0.233000 -0.455000
vt 0.234600 -0.456300
vt 0.234400 -0.412800
vt 0.235800 -0.456400
vt 0.235600 -0.413000
vt 0.237400 -0.454900
vt 0.237200 -0.414700
vt 0.231900 -0.400100
vt 0.233700 -0.407200
vt 0.235800 -0.400000
vt 0.232000 -0.401900
vt 0.237000 -0.406500
vt 0.238200 -0.401800
vt 0.232600 -0.400100
vt 0.234400 -0.407200
vt 0.236500 -0.400000
vt 0.234200 -0.400100
vt 0.231900 -0.406600
vt 0.235800 -0.406400
vt 0.231900 -0.400000
vt 0.233900 -0.406100
vt 0.239100 -0.403000
vt 0.239100 -0.400000
vt 0.231900 -0.402900
vt 0.237600 -0.405800
vt 0.235700 -0.407200
vt 0.237000 -0.400000
vt 0.225900 -0.388500
vt 0.228500 -0.458500
vt 0.228400 -0.388400
vt 0.226000 -0.458500
vt 0.223700 -0.388500
vt 0.223800 -0.458500
vt 0.224700 -0.388500
vt 0.224700 -0.458500
vt 0.227700 -0.458500
vt 0.227700 -0.388500
vt 0.225300 -0.388500
vt 0.225200 -0.458600
vt 0.227100 -0.458600
vt 0.227200 -0.388500
vt 0.224800 -0.388400
vt 0.226800 -0.458500
vt 0.226900 -0.388500
vt 0.239400 -0.459700
vt 0.237800 -0.461600
vt 0.237900 -0.467300
vt 0.239500 -0.469300
vt 0.243100 -0.459700
vt 0.243100 -0.469300
vt 0.244700 -0.461600
vt 0.244800 -0.467400
vt 0.241100 -0.467700
vt 0.241100 -0.462200
vt 0.237100 -0.462200
vt 0.237100 -0.467700
vt 0.241600 -0.466800
vt 0.241600 -0.461300
vt 0.237700 -0.461300
vt 0.237700 -0.466800
vt 0.210900 -0.454000
vt 0.211000 -0.444900
vt 0.209000 -0.441800
vt 0.208900 -0.457100
vt 0.204500 -0.441900
vt 0.204400 -0.457200
vt 0.202500 -0.445100
vt 0.202400 -0.454200
vt 0.254900 -0.424000
vt 0.261500 -0.422300
vt 0.254900 -0.422300
vt 0.261500 -0.424000
vt 0.254900 -0.429400
vt 0.261400 -0.429400
vt 0.254900 -0.431300
vt 0.261400 -0.431300
vt 0.254800 -0.424000
vt 0.261400 -0.422300
vt 0.254800 -0.422300
vt 0.261400 -0.424000
vt 0.254900 -0.429300
vt 0.261400 -0.429300
vt 0.261500 -0.431300
vt 0.233600 -0.465900
vt 0.247900 -0.459700
vt 0.233600 -0.459900
vt 0.247900 -0.465700
vt 0.233600 -0.469400
vt 0.247900 -0.469200
vt 0.233600 -0.459700
vt 0.233600 -0.465600
vt 0.247900 -0.465600
vt 0.233600 -0.469200
vt 0.247900 -0.462300
vt 0.233600 -0.462600
vt 0.233600 -0.466700
vt 0.247900 -0.466400
vt 0.244100 -0.459900
vt 0.237900 -0.459900
vt 0.235900 -0.465700
vt 0.246100 -0.465800
vt 0.241000 -0.469200
vt 0.246000 -0.465800
vt 0.244000 -0.460000
vt 0.237900 -0.460000
vt 0.235800 -0.465800
vt 0.240900 -0.469300
vt 0.006100 -0.498600
vt 0.006100 -0.499100
vt 0.317600 -0.499100
vt 0.006100 -0.498100
vt 0.006100 -0.493500
vt 0.006100 -0.483500
vt 0.004900 -0.498100
vt 0.004100 -0.483500
vt 0.003800 -0.498500
vt 0.002700 -0.498100
vt 0.001500 -0.493500
vt 0.262100 -0.422400
vt 0.254400 -0.422400
vt 0.254400 -0.417800
vt 0.262100 -0.417900
vt 0.254300 -0.417900
vt 0.254300 -0.422400
vt 0.262100 -0.422200
vt 0.254300 -0.422200
vt 0.254300 -0.420100
vt 0.262100 -0.420100
vt 0.254400 -0.419100
vt 0.262100 -0.419100
vt 0.180700 -0.468600
vt 0.184400 -0.465800
vt 0.182900 -0.461200
vt 0.178300 -0.461300
vt 0.176900 -0.465900
vt 0.178500 -0.461200
vt 0.176900 -0.465800
vt 0.180700 -0.468500
vt 0.183000 -0.461300
vt 0.184500 -0.465800
vt 0.267500 -0.431300
vt 0.261600 -0.422400
vt 0.266200 -0.422400
vt 0.260300 -0.422400
vt 0.261700 -0.422400
vt 0.260300 -0.429300
vt 0.256400 -0.429300
vt 0.255000 -0.422400
vt 0.256400 -0.422400
vt 0.261600 -0.431200
vt 0.254900 -0.431200
vt 0.266300 -0.422400
vt 0.267600 -0.431200
vt 0.237800 -0.467400
vt 0.242200 -0.467400
vt 0.242200 -0.466400
vt 0.237800 -0.466400
vt 0.242200 -0.462600
vt 0.237800 -0.462600
vt 0.237800 -0.463600
vt 0.242200 -0.463600
vt 0.261700 -0.429300
vt 0.267300 -0.429300
vt 0.261600 -0.429300
vt 0.255100 -0.419600
vt 0.254400 -0.417900
vt 0.261400 -0.419600
vt 0.255100 -0.420700
vt 0.261400 -0.420700
vt 0.269100 -0.438800
vt 0.269100 -0.440100
vt 0.267500 -0.441300
vt 0.267500 -0.437600
vt 0.269200 -0.440100
vt 0.269200 -0.438800
vt 0.247600 -0.466600
vt 0.247600 -0.462200
vt 0.245700 -0.462200
vt 0.245700 -0.466600
vt 0.210100 -0.440200
vt 0.210100 -0.453300
vt 0.203100 -0.453300
vt 0.203100 -0.440200
vt 0.240700 -0.462200
vt 0.240700 -0.466600
vt 0.210200 -0.453300
vt 0.210200 -0.440200
vt 0.233800 -0.466600
vt 0.238800 -0.466600
vt 0.238800 -0.462200
vt 0.233800 -0.462200
vt 0.229500 -0.411300
vt 0.229500 -0.388600
vt 0.227100 -0.388800
vt 0.227100 -0.411600
vt 0.225100 -0.388300
vt 0.225100 -0.411100
vt 0.222700 -0.388600
vt 0.222700 -0.411300
vt 0.230800 -0.398600
vt 0.230900 -0.428300
vt 0.234000 -0.428300
vt 0.233900 -0.398600
vt 0.236500 -0.428200
vt 0.236400 -0.398500
vt 0.239600 -0.428300
vt 0.239500 -0.398600
vt 0.211200 -0.469600
vt 0.231200 -0.469600
vt 0.231200 -0.466900
vt 0.211200 -0.466900
vt 0.231100 -0.463600
vt 0.211100 -0.463600
vt 0.231100 -0.460000
vt 0.211100 -0.460000
vt 0.210200 -0.466400
vt 0.230400 -0.469600
vt 0.210200 -0.469600
vt 0.230500 -0.466400
vt 0.210200 -0.463000
vt 0.230400 -0.463000
vt 0.210800 -0.460300
vt 0.231000 -0.460300
vt 0.210600 -0.447500
vt 0.207000 -0.445200
vt 0.203200 -0.447500
vt 0.210600 -0.451500
vt 0.203200 -0.451500
vt 0.207000 -0.453800
vt 0.206700 -0.445200
vt 0.206700 -0.453800
vt 0.260200 -0.429300
vt 0.260200 -0.422400
vt 0.256300 -0.429300
vt 0.256300 -0.422400
vt 0.254900 -0.422400
vt 0.262000 -0.417900
vt 0.262000 -0.422400
vt 0.254400 -0.422200
vt 0.254400 -0.420100
vt 0.254300 -0.419100
vt 0.178400 -0.461300
vt 0.177000 -0.465900
vt 0.180800 -0.468600
vt 0.182900 -0.461300
vt 0.183000 -0.461200
vt 0.238400 -0.466500
vt 0.242800 -0.466500
vt 0.242800 -0.465500
vt 0.238400 -0.465500
vt 0.242800 -0.461800
vt 0.238400 -0.461800
vt 0.238400 -0.462800
vt 0.242800 -0.462800
vt 0.267600 -0.437500
vt 0.210700 -0.462500
vt 0.230900 -0.462500
vt 0.230900 -0.459900
vt 0.210700 -0.459900
vt 0.211000 -0.460100
vt 0.231000 -0.460100
vt 0.231000 -0.463600
vt 0.211000 -0.463600
vt 0.231000 -0.466900
vt 0.211000 -0.466900
vt 0.210800 -0.466100
vt 0.231100 -0.462600
vt 0.210800 -0.462600
vt 0.231000 -0.466100
vt 0.210800 -0.469300
vt 0.231100 -0.469300
vt 0.211000 -0.467000
vt 0.231000 -0.469600
vt 0.211000 -0.469600
vt 0.246400 -0.428600
vt 0.246300 -0.437600
vt 0.252000 -0.437700
vt 0.252100 -0.428600
vt 0.182800 -0.467900
vt 0.184200 -0.462400
vt 0.177300 -0.462300
vt 0.178700 -0.467900
vt 0.243700 -0.467000
vt 0.243600 -0.462000
vt 0.238200 -0.462000
vt 0.238300 -0.467000
vt 0.182800 -0.467800
vt 0.184200 -0.462300
vt 0.177300 -0.462400
vt 0.243500 -0.466800
vt 0.243500 -0.461800
vt 0.238100 -0.461800
vt 0.238200 -0.466800
vt 0.244300 -0.404500
vt 0.240700 -0.404500
vt 0.240700 -0.408200
vt 0.244300 -0.408200
vt 0.240700 -0.424500
vt 0.244300 -0.424500
vt 0.240700 -0.442000
vt 0.244300 -0.442000
vt 0.240700 -0.457800
vt 0.244300 -0.457800
vt 0.244300 -0.424600
vt 0.240700 -0.424600
vt 0.244300 -0.408300
vt 0.240700 -0.456800
vt 0.244300 -0.456900
vt 0.244300 -0.441200
vt 0.240700 -0.441100
vt 0.244300 -0.424100
vt 0.240700 -0.424100
vt 0.244300 -0.409000
vt 0.240700 -0.409000
vt 0.244300 -0.408900
vt 0.240700 -0.408900
vt 0.244300 -0.441100
vt 0.244300 -0.456800
vt 0.242400 -0.468400
vt 0.242200 -0.460500
vt 0.240200 -0.460500
vt 0.240400 -0.468500
vt 0.182700 -0.466600
vt 0.184000 -0.462500
vt 0.177500 -0.462500
vt 0.178800 -0.466600
vt 0.245700 -0.469400
vt 0.245600 -0.466700
vt 0.234800 -0.466700
vt 0.234900 -0.469400
vt 0.184000 -0.462400
vt 0.177500 -0.462400
vt 0.246700 -0.468700
vt 0.246600 -0.466000
vt 0.235900 -0.466000
vt 0.236000 -0.468700
vt 0.239700 -0.457600
vt 0.239600 -0.398500
vt 0.236600 -0.398400
vt 0.236700 -0.457400
vt 0.233700 -0.398700
vt 0.233800 -0.457700
vt 0.230900 -0.457600
vt 0.236700 -0.457600
vt 0.233700 -0.398500
vt 0.230800 -0.457700
vt 0.230800 -0.398500
vt 0.198000 -0.456600
vt 0.196200 -0.454500
vt 0.180400 -0.454500
vt 0.178600 -0.456600
vt 0.196200 -0.458600
vt 0.180400 -0.458600
vt 0.186500 -0.427600
vt 0.185500 -0.431700
vt 0.185400 -0.427600
vt 0.186600 -0.431700
vt 0.196600 -0.431600
vt 0.196500 -0.427500
vt 0.197600 -0.427500
vt 0.197700 -0.431600
vt 0.185500 -0.427600
vt 0.185500 -0.431600
vt 0.186600 -0.431600
vt 0.186600 -0.427600
vt 0.196600 -0.427500
vt 0.197700 -0.427500
vt 0.266000 -0.451600
vt 0.266000 -0.448400
vt 0.254000 -0.446300
vt 0.254000 -0.453700
vt 0.244200 -0.462600
vt 0.241300 -0.462600
vt 0.241300 -0.467300
vt 0.244200 -0.467300
vt 0.254100 -0.446400
vt 0.266100 -0.448400
vt 0.266100 -0.451700
vt 0.254100 -0.453700
vt 0.241200 -0.463300
vt 0.240500 -0.463300
vt 0.240500 -0.465300
vt 0.241200 -0.465300
vt 0.239900 -0.461100
vt 0.240800 -0.467400
vt 0.243500 -0.467700
vt 0.240600 -0.460900
vt 0.242600 -0.467300
vt 0.241000 -0.461100
vt 0.240200 -0.461000
vt 0.239900 -0.468100
vt 0.265900 -0.451600
vt 0.265900 -0.448400
vt 0.253900 -0.446400
vt 0.253900 -0.453700
vt 0.244800 -0.461800
vt 0.241900 -0.461800
vt 0.241900 -0.466400
vt 0.244800 -0.466400
vt 0.239900 -0.463400
vt 0.239200 -0.463400
vt 0.239200 -0.465400
vt 0.239900 -0.465400
vt 0.242900 -0.467600
vt 0.242000 -0.461400
vt 0.239300 -0.461000
vt 0.242100 -0.467800
vt 0.239600 -0.461600
vt 0.241200 -0.467800
vt 0.242000 -0.467900
vt 0.242300 -0.460700
vt 0.240800 -0.433700
vt 0.244400 -0.433700
vt 0.244300 -0.431100
vt 0.240700 -0.431100
vt 0.244000 -0.415700
vt 0.241300 -0.415700
vt 0.241200 -0.427000
vt 0.243900 -0.427000
vt 0.243900 -0.439400
vt 0.241200 -0.439400
vt 0.241200 -0.450200
vt 0.243900 -0.450200
vt 0.252600 -0.439300
vt 0.252600 -0.435900
vt 0.249100 -0.446900
vt 0.249800 -0.450300
vt 0.248400 -0.450300
vt 0.245800 -0.435900
vt 0.245800 -0.439300
vt 0.245800 -0.436000
vt 0.249800 -0.450200
vt 0.252600 -0.439200
vt 0.241200 -0.446700
vt 0.243900 -0.446700
vt 0.243900 -0.435400
vt 0.241200 -0.435400
vt 0.241200 -0.429800
vt 0.243900 -0.429800
vt 0.244000 -0.419100
vt 0.241200 -0.419100
vt 0.236100 -0.427400
vt 0.237400 -0.455000
vt 0.237700 -0.427000
vt 0.235800 -0.455500
vt 0.234500 -0.427000
vt 0.234200 -0.455000
vt 0.232400 -0.426900
vt 0.232200 -0.454900
vt 0.240800 -0.431100
vt 0.240700 -0.433700
vt 0.244300 -0.433700
vt 0.244400 -0.431100
vt 0.243900 -0.426900
vt 0.243900 -0.415700
vt 0.241200 -0.415600
vt 0.241200 -0.426900
vt 0.252600 -0.426900
vt 0.249300 -0.419300
vt 0.252600 -0.430300
vt 0.250000 -0.415900
vt 0.248600 -0.415900
vt 0.245800 -0.430300
vt 0.245800 -0.426900
vt 0.252600 -0.426800
vt 0.252600 -0.430200
vt 0.241200 -0.419000
vt 0.241200 -0.429700
vt 0.243900 -0.429700
vt 0.243900 -0.419000
vt 0.241200 -0.435500
vt 0.241200 -0.446800
vt 0.243900 -0.446800
vt 0.243900 -0.435500
vt 0.237500 -0.426800
vt 0.236000 -0.456000
vt 0.237700 -0.455500
vt 0.235800 -0.427200
vt 0.234400 -0.455500
vt 0.234200 -0.426800
vt 0.232300 -0.455600
vt 0.232100 -0.426800
vt 0.225900 -0.423600
vt 0.226200 -0.443800
vt 0.229700 -0.423600
vt 0.229700 -0.388400
vt 0.225800 -0.388400
vt 0.222500 -0.423600
vt 0.222400 -0.388400
vt 0.223800 -0.423600
vt 0.226300 -0.443800
vt 0.228400 -0.423600
vt 0.223900 -0.388400
vt 0.224400 -0.423600
vt 0.226700 -0.443800
vt 0.227400 -0.423700
vt 0.227500 -0.388500
vt 0.224500 -0.388500
vt 0.224500 -0.423600
vt 0.225400 -0.443800
vt 0.227500 -0.423600
vt 0.227600 -0.388400
vt 0.224500 -0.388400
vt 0.216200 -0.452700
vt 0.216200 -0.446600
vt 0.212600 -0.441600
vt 0.206900 -0.439700
vt 0.212700 -0.457600
vt 0.201100 -0.441400
vt 0.206900 -0.459400
vt 0.197600 -0.446300
vt 0.201200 -0.457400
vt 0.197600 -0.452400
vt 0.196400 -0.454700
vt 0.196400 -0.458500
vt 0.187700 -0.454700
vt 0.187700 -0.458500
vt 0.180300 -0.454700
vt 0.180300 -0.458500
vt 0.178700 -0.456600
vt 0.290700 -0.450900
vt 0.292300 -0.445400
vt 0.292400 -0.451200
vt 0.290500 -0.445200
vt 0.281500 -0.450800
vt 0.281300 -0.440400
vt 0.272300 -0.446000
vt 0.272100 -0.440200
vt 0.270500 -0.445700
vt 0.270400 -0.440000
vt 0.292200 -0.451200
vt 0.292200 -0.445400
vt 0.290500 -0.445100
vt 0.290500 -0.450900
vt 0.281300 -0.440300
vt 0.281300 -0.450800
vt 0.272200 -0.440200
vt 0.272200 -0.446000
vt 0.270400 -0.439900
vt 0.270400 -0.445700
vt 0.235800 -0.413100
vt 0.237200 -0.456500
vt 0.237300 -0.414100
vt 0.235500 -0.456600
vt 0.234700 -0.412900
vt 0.234400 -0.456500
vt 0.233500 -0.414100
vt 0.232900 -0.456500
vt 0.300500 -0.456400
vt 0.302500 -0.456500
vt 0.302700 -0.455900
vt 0.300600 -0.455700
vt 0.302800 -0.455900
vt 0.292300 -0.454800
vt 0.292200 -0.455400
vt 0.302300 -0.456500
vt 0.302700 -0.458500
vt 0.292200 -0.464200
vt 0.302700 -0.461400
vt 0.302500 -0.456000
vt 0.292300 -0.454900
vt 0.292300 -0.455600
vt 0.302800 -0.456600
vt 0.302800 -0.461300
vt 0.292300 -0.464200
vt 0.234600 -0.412900
vt 0.302900 -0.455900
vt 0.300900 -0.455800
vt 0.300700 -0.456400
vt 0.302800 -0.456000
vt 0.292300 -0.455500
vt 0.302400 -0.456500
vt 0.302300 -0.455900
vt 0.292200 -0.454900
vt 0.292200 -0.455500
vt 0.302700 -0.456500
vt 0.235200 -0.403600
vt 0.235400 -0.408700
vt 0.240200 -0.403700
vt 0.230600 -0.403500
vt 0.235400 -0.398500
vt 0.248000 -0.408400
vt 0.249300 -0.409300
vt 0.250700 -0.408500
vt 0.244700 -0.424400
vt 0.252600 -0.424700
vt 0.245900 -0.424600
vt 0.253700 -0.424500
vt 0.244600 -0.441800
vt 0.252500 -0.441600
vt 0.245800 -0.441600
vt 0.253600 -0.441800
vt 0.247700 -0.457800
vt 0.249100 -0.457000
vt 0.250400 -0.457800
vt 0.250700 -0.408400
vt 0.244800 -0.424500
vt 0.252600 -0.424600
vt 0.245900 -0.424700
vt 0.253700 -0.424300
vt 0.244700 -0.441800
vt 0.252500 -0.441500
vt 0.253600 -0.441700
vt 0.249100 -0.456900
vt 0.250400 -0.457700
vt 0.235400 -0.408400
vt 0.235200 -0.403300
vt 0.240200 -0.403200
vt 0.235400 -0.398200
vt 0.235400 -0.408600
vt 0.235200 -0.403500
vt 0.230600 -0.403600
vt 0.240200 -0.403400
vt 0.235400 -0.398400
vt 0.206700 -0.457000
vt 0.202400 -0.455600
vt 0.212600 -0.457500
vt 0.201100 -0.457500
vt 0.211000 -0.455600
vt 0.216200 -0.452500
vt 0.199800 -0.451900
vt 0.197500 -0.452500
vt 0.213700 -0.451900
vt 0.216200 -0.446400
vt 0.199800 -0.447400
vt 0.197500 -0.446500
vt 0.213700 -0.447400
vt 0.212600 -0.441500
vt 0.202400 -0.443700
vt 0.201100 -0.441500
vt 0.211000 -0.443700
vt 0.206900 -0.439600
vt 0.206700 -0.442300
s 1
usemtl Huey
f 1/1/1 2/2/1 3/3/1
f 4/3/2 5/4/2 6/1/2
f 7/1/3 8/2/3 9/3/3
f 10/3/4 11/4/4 12/1/4
f 13/5/5 14/6/5 15/7/5
f 16/8/6 14/6/6 17/5/6
f 18/9/7 19/10/7 20/11/7
f 21/11/8 19/10/8 22/12/8
f 23/5/9 24/13/9 25/8/9
f 26/8/10 24/13/10 27/5/10
f 28/9/11 29/10/11 30/11/11
f 31/11/12 29/10/12 32/9/12
f 33/14/13 34/15/13 35/16/13
f 36/17/14 37/18/14 38/19/14
f 39/20/15 40/21/15 41/22/15
f 39/20/16 42/22/16 43/23/16
f 43/23/17 42/22/18 44/24/19
f 43/23/17 44/24/19 45/25/20
f 46/25/21 44/24/22 47/26/23
f 46/25/21 47/26/23 48/27/24
f 49/28/25 50/29/25 51/30/25
f 52/31/26 53/32/26 54/33/26
f 55/20/27 56/21/27 57/22/27
f 55/20/28 58/22/28 59/23/28
f 59/23/29 58/22/30 60/24/31
f 59/23/29 60/24/31 61/25/32
f 62/25/33 60/24/34 63/26/35
f 62/25/33 63/26/35 64/27/36
f 65/34/37 66/35/37 67/36/37
f 68/37/38 69/38/38 70/39/38
f 71/40/39 72/41/39 73/42/39
f 74/43/40 75/44/40 76/45/40
f 77/28/41 78/46/41 79/47/41
f 80/28/42 81/46/42 82/47/42
f 83/48/43 84/49/43 85/50/43
f 83/48/43 86/51/43 84/49/43
f 87/52/44 86/51/44 83/48/44
f 87/52/44 88/53/44 86/51/44
f 89/54/45 90/55/45 91/56/45
f 89/54/45 91/56/45 92/57/45
f 93/58/46 94/59/46 95/60/46
f 93/58/46 95/60/46 96/61/46
f 97/62/47 98/55/47 99/63/47
f 97/62/47 99/63/47 100/64/47
f 101/65/48 102/66/48 103/67/49
f 103/67/49 104/68/48 101/65/48
f 104/68/48 105/69/48 101/65/48
f 104/68/48 106/70/48 105/69/48
f 106/70/48 107/71/48 105/69/48
f 106/70/48 108/72/48 107/71/48
f 109/73/50 110/74/50 111/75/50
f 109/73/50 111/75/50 112/76/50
f 113/77/51 114/78/51 115/79/51
f 113/77/51 115/79/51 116/80/51
f 117/81/52 118/82/53 119/83/54
f 119/83/54 120/84/55 117/81/52
f 119/83/54 121/85/55 120/84/55
f 121/85/55 122/86/54 120/84/55
f 121/85/55 123/87/52 122/86/54
f 123/87/52 124/88/53 122/86/54
f 125/89/56 126/90/56 127/91/56
f 125/89/56 128/92/56 126/90/56
f 129/93/57 128/92/57 125/89/57
f 129/93/57 130/94/57 128/92/57
f 131/95/58 130/94/58 129/93/58
f 131/95/58 132/96/58 130/94/58
f 133/97/59 134/98/59 135/99/59
f 133/97/59 136/100/59 134/98/59
f 137/101/60 136/100/60 133/97/60
f 137/101/60 138/102/60 136/100/60
f 139/95/61 138/102/61 137/101/61
f 139/95/61 140/103/61 138/102/61
f 141/104/62 142/105/62 143/106/62
f 141/104/62 144/107/62 142/105/62
f 145/108/63 144/107/63 141/104/63
f 145/108/63 146/109/63 144/107/63
f 147/105/64 148/110/64 149/111/64
f 147/105/64 149/111/64 150/112/64
f 150/112/65 149/111/65 151/113/65
f 150/112/65 151/113/65 152/109/65
f 153/114/66 154/115/66 155/116/66
f 153/114/66 155/116/66 156/117/66
f 157/118/67 158/119/67 159/120/67
f 159/120/67 160/121/67 157/118/67
f 159/120/67 161/122/67 160/121/67
f 162/123/68 163/124/68 164/125/68
f 164/125/68 165/126/68 162/123/68
f 165/126/68 166/127/68 162/123/68
f 167/4/69 168/128/70 169/129/70
f 167/4/69 169/129/70 170/130/69
f 171/3/71 172/131/72 173/132/73
f 171/3/71 173/132/73 174/2/74
f 174/2/74 173/132/73 175/133/75
f 174/2/74 175/133/75 176/1/76
f 177/1/77 178/133/78 179/132/79
f 177/1/77 179/132/79 180/2/80
f 180/2/80 179/132/79 181/131/81
f 180/2/80 181/131/81 182/3/82
f 182/3/83 181/131/84 183/128/84
f 182/3/83 183/128/84 184/4/83
f 185/134/85 186/132/86 187/135/87
f 187/135/87 188/136/88 185/134/85
f 187/135/87 189/137/85 188/136/88
f 187/135/87 190/138/89 189/137/85
f 191/4/90 192/3/91 193/1/92
f 192/3/91 194/2/93 193/1/92
f 195/4/94 196/128/95 197/129/95
f 195/4/94 197/129/95 198/130/94
f 199/3/96 200/131/97 201/132/98
f 199/3/96 201/132/98 202/2/99
f 202/2/99 201/132/98 203/133/100
f 202/2/99 203/133/100 204/1/100
f 205/1/101 206/133/102 207/132/103
f 205/1/101 207/132/103 208/2/104
f 208/2/104 207/132/103 209/131/105
f 208/2/104 209/131/105 210/3/106
f 210/3/107 209/131/108 211/128/108
f 210/3/107 211/128/108 212/4/107
f 213/134/109 214/132/110 215/135/111
f 215/135/111 216/136/112 213/134/109
f 215/135/111 217/137/109 216/136/112
f 215/135/111 218/138/113 217/137/109
f 219/4/114 220/3/115 221/1/116
f 220/3/115 222/2/117 221/1/116
f 223/139/118 224/140/118 225/141/118
f 223/139/118 225/141/118 226/142/118
f 227/142/119 228/143/119 229/144/119
f 227/142/119 229/144/119 230/139/119
f 231/145/120 232/146/120 233/147/120
f 231/145/120 233/147/120 234/148/120
f 234/148/121 233/147/121 235/143/121
f 234/148/121 235/143/121 236/142/121
f 237/139/122 238/140/122 239/149/122
f 237/139/122 239/149/122 240/150/122
f 241/151/123 242/152/123 243/153/123
f 243/153/123 244/154/123 241/151/123
f 244/154/123 245/155/123 241/151/123
f 246/156/124 247/157/124 248/158/124
f 248/158/124 249/159/124 246/156/124
f 248/158/124 250/160/124 249/159/124
f 251/161/125 252/162/126 253/163/127
f 251/161/125 254/7/128 252/162/126
f 251/161/125 255/5/123 254/7/128
f 256/11/129 257/164/130 258/165/131
f 256/11/129 259/166/132 257/164/130
f 259/166/132 256/11/129 260/12/133
f 259/166/132 260/12/133 261/167/134
f 261/167/134 260/12/133 262/168/135
f 261/167/134 262/168/135 263/169/136
f 264/170/137 265/171/137 266/9/137
f 264/170/137 266/9/137 267/11/137
f 268/165/138 269/8/138 270/5/139
f 270/5/139 271/172/139 268/165/138
f 270/5/139 272/173/140 271/172/139
f 273/174/67 274/175/67 275/176/67
f 273/174/67 275/176/67 276/177/67
f 277/178/67 278/179/67 279/180/67
f 277/178/67 279/180/67 280/181/67
f 281/172/141 282/165/141 283/182/141
f 281/172/141 283/182/141 284/183/141
f 285/162/142 286/163/142 287/183/142
f 285/162/142 287/183/142 288/184/142
f 289/185/143 290/142/143 291/186/143
f 289/185/143 292/187/143 290/142/143
f 293/188/137 292/187/137 289/185/137
f 293/188/137 294/189/137 292/187/137
f 295/140/144 294/189/144 293/188/144
f 295/140/144 296/139/144 294/189/144
f 297/190/145 298/191/146 299/192/147
f 297/190/145 299/192/147 300/193/148
f 301/193/149 302/5/150 303/194/151
f 301/193/149 303/194/151 304/195/152
f 305/196/153 306/197/153 307/198/153
f 305/196/153 307/198/153 308/199/153
f 309/200/123 310/201/123 311/202/123
f 309/200/123 311/202/123 312/203/123
f 313/198/154 314/204/154 315/205/154
f 313/198/154 315/205/154 316/199/154
f 317/206/155 318/207/155 319/203/155
f 317/206/155 319/203/155 320/202/155
f 321/208/156 322/209/156 323/210/156
f 321/208/156 323/210/156 324/211/156
f 325/209/157 326/205/157 327/204/157
f 325/209/157 327/204/157 328/210/157
f 329/212/158 330/213/158 331/214/158
f 329/212/158 331/214/158 332/215/158
f 332/215/124 331/214/124 333/216/124
f 332/215/124 333/216/124 334/217/124
f 334/217/159 333/216/159 335/218/159
f 334/217/159 335/218/159 336/219/159
f 337/220/160 338/221/161 339/222/162
f 337/220/160 339/222/162 340/223/163
f 340/223/164 339/222/164 341/224/164
f 340/223/164 341/224/164 342/225/164
f 342/225/165 341/224/165 343/226/165
f 342/225/165 343/226/165 344/227/165
f 345/228/67 346/229/67 347/230/67
f 345/228/67 347/230/67 348/231/67
f 348/231/166 347/230/167 349/232/168
f 348/231/166 349/232/168 350/233/169
f 350/233/170 349/232/171 351/234/172
f 350/233/170 351/234/172 352/235/173
f 353/236/174 354/237/174 355/238/174
f 353/236/174 356/239/174 354/237/174
f 357/240/175 356/239/175 353/236/175
f 357/240/175 358/241/175 356/239/175
f 359/242/68 358/241/68 357/240/68
f 359/242/68 360/243/68 358/241/68
f 361/244/176 362/245/177 363/246/176
f 363/246/176 364/247/176 361/244/176
f 363/246/176 365/248/176 364/247/176
f 365/248/176 366/249/177 364/247/176
f 367/244/178 368/250/123 369/246/178
f 369/246/178 370/248/178 367/244/178
f 370/248/178 371/247/178 367/244/178
f 370/248/178 372/251/123 371/247/178
f 373/252/179 374/162/180 375/253/181
f 373/252/179 376/170/182 374/162/180
f 373/252/179 377/171/183 376/170/182
f 373/252/179 378/254/184 377/171/183
f 377/171/183 378/254/184 379/255/185
f 377/171/183 379/255/185 380/256/186
f 381/139/187 382/144/187 383/143/187
f 381/139/187 383/143/187 384/142/187
f 385/257/188 386/143/188 387/144/188
f 385/257/188 387/144/188 388/258/188
f 389/145/189 390/259/189 391/260/189
f 389/145/189 391/260/189 392/148/189
f 392/148/190 391/260/190 393/186/190
f 392/148/190 393/186/190 394/142/190
f 395/139/191 396/144/191 397/261/191
f 395/139/191 397/261/191 398/150/191
f 399/262/123 400/263/123 401/264/123
f 401/264/123 402/265/123 399/262/123
f 401/264/123 403/160/123 402/265/123
f 404/158/124 405/160/124 406/266/124
f 406/266/124 407/156/124 404/158/124
f 407/156/124 408/157/124 404/158/124
f 409/173/192 410/165/193 411/172/194
f 409/173/192 412/8/195 410/165/193
f 409/173/192 413/5/123 412/8/195
f 414/11/196 415/253/197 416/162/198
f 414/11/196 417/252/199 415/253/197
f 417/252/199 414/11/196 418/9/200
f 417/252/199 418/9/200 419/254/201
f 419/254/201 418/9/200 420/256/202
f 419/254/201 420/256/202 421/255/203
f 422/170/204 423/171/204 424/9/204
f 422/170/204 424/9/204 425/11/204
f 426/8/205 427/5/124 428/173/206
f 428/173/206 429/172/207 426/8/205
f 429/172/207 430/162/208 426/8/205
f 431/267/68 432/268/68 433/269/68
f 431/267/68 433/269/68 434/270/68
f 435/271/68 436/272/68 437/273/68
f 435/271/68 437/273/68 438/274/68
f 439/163/209 440/162/209 441/182/209
f 439/163/209 441/182/209 442/183/209
f 443/165/210 444/172/210 445/183/210
f 443/165/210 445/183/210 446/182/210
f 447/185/211 448/142/212 449/186/211
f 447/185/211 450/187/212 448/142/212
f 451/188/204 450/187/204 447/185/204
f 451/188/204 452/189/204 450/187/204
f 453/140/213 452/189/213 451/188/213
f 453/140/213 454/139/213 452/189/213
f 455/195/214 456/194/215 457/5/216
f 455/195/214 457/5/216 458/275/217
f 459/193/218 460/192/219 461/194/220
f 459/193/218 461/194/220 462/195/221
f 463/196/157 464/197/157 465/198/157
f 463/196/157 465/198/157 466/199/157
f 467/200/123 468/201/123 469/202/123
f 467/200/123 469/202/123 470/203/123
f 471/198/156 472/204/156 473/205/156
f 471/198/156 473/205/156 474/199/156
f 475/206/222 476/207/222 477/203/222
f 475/206/222 477/203/222 478/202/222
f 479/208/154 480/209/154 481/210/154
f 479/208/154 481/210/154 482/211/154
f 483/209/153 484/205/153 485/204/153
f 483/209/153 485/204/153 486/210/153
f 487/212/159 488/213/159 489/214/159
f 487/212/159 489/214/159 490/215/159
f 490/215/124 489/214/124 491/216/124
f 490/215/124 491/216/124 492/217/124
f 492/217/158 491/216/158 493/218/158
f 492/217/158 493/218/158 494/219/158
f 495/220/223 496/221/224 497/222/225
f 495/220/223 497/222/225 498/223/226
f 498/223/227 497/222/227 499/224/227
f 498/223/227 499/224/227 500/225/227
f 500/225/228 499/224/228 501/226/228
f 500/225/228 501/226/228 502/227/228
f 503/276/68 504/277/68 505/278/68
f 503/276/68 505/278/68 506/279/68
f 507/280/229 508/281/229 509/282/229
f 507/280/229 509/282/229 510/283/229
f 510/283/230 509/282/230 511/284/230
f 510/283/230 511/284/230 512/285/230
f 513/286/231 514/287/232 515/288/233
f 513/286/231 516/289/234 514/287/232
f 517/290/235 516/289/236 513/286/237
f 517/290/235 518/291/238 516/289/236
f 519/292/67 520/284/67 521/293/67
f 519/292/67 521/293/67 522/294/67
f 523/248/239 524/249/240 525/247/239
f 525/247/239 526/244/239 523/248/239
f 526/244/239 527/246/239 523/248/239
f 526/244/239 528/245/240 527/246/239
f 529/248/241 530/251/123 531/247/241
f 531/247/241 532/246/241 529/248/241
f 531/247/241 533/244/241 532/246/241
f 533/244/241 534/250/123 532/246/241
f 535/252/242 536/162/243 537/253/244
f 535/252/242 538/170/245 536/162/243
f 535/252/242 539/171/246 538/170/245
f 535/252/242 540/254/247 539/171/246
f 539/171/246 540/254/247 541/255/248
f 539/171/246 541/255/248 542/256/249
f 543/295/250 544/296/250 545/297/250
f 543/295/250 545/297/250 546/298/250
f 547/299/251 548/300/252 549/301/251
f 547/299/251 549/301/251 550/302/253
f 551/303/254 552/304/254 553/305/254
f 551/303/254 553/305/254 554/306/254
f 555/307/255 556/308/256 557/309/255
f 555/307/255 557/309/255 558/302/257
f 559/310/258 560/311/258 561/312/258
f 559/310/258 561/312/258 562/313/259
f 563/314/260 564/315/260 565/316/260
f 563/314/260 565/316/260 566/317/260
f 567/314/261 568/315/261 569/316/261
f 567/314/261 569/316/261 570/317/261
f 571/317/262 572/316/262 573/318/263
f 571/317/262 573/318/263 574/319/264
f 574/319/264 573/318/263 575/320/265
f 574/319/264 575/320/265 576/321/266
f 576/321/266 575/320/265 577/322/267
f 576/321/266 577/322/267 578/323/267
f 579/321/268 580/322/269 581/323/269
f 579/321/268 582/320/270 580/322/269
f 583/324/271 582/320/270 579/321/268
f 583/324/271 584/325/272 582/320/270
f 585/326/273 584/325/272 583/324/271
f 585/326/273 586/316/273 584/325/272
f 587/327/274 588/328/274 589/329/275
f 587/327/274 589/329/275 590/330/275
f 590/330/275 589/329/275 591/331/276
f 590/330/275 591/331/276 592/332/276
f 592/332/276 591/331/276 593/333/277
f 592/332/276 593/333/277 594/334/277
f 595/332/278 596/335/279 597/336/279
f 595/332/278 598/331/280 596/335/279
f 599/330/281 598/331/280 595/332/278
f 599/330/281 600/337/281 598/331/280
f 601/327/282 600/337/281 599/330/281
f 601/327/282 602/338/282 600/337/281
f 603/339/283 604/340/283 605/341/283
f 603/339/283 605/341/283 606/342/283
f 607/343/284 608/344/285 609/345/286
f 607/343/284 609/345/286 610/346/287
f 611/347/288 612/348/288 613/349/289
f 611/347/288 613/349/289 614/350/290
f 615/343/291 616/351/292 617/352/293
f 615/343/291 617/352/293 618/346/294
f 619/353/295 620/354/296 621/355/297
f 619/353/295 621/355/297 622/356/298
f 623/357/299 624/358/300 625/359/300
f 623/357/299 625/359/300 626/360/299
f 626/360/124 625/359/124 627/361/124
f 626/360/124 627/361/124 628/362/124
f 628/362/301 627/361/301 629/220/301
f 628/362/301 629/220/301 630/363/301
f 631/358/302 632/364/303 633/357/303
f 631/358/302 634/359/302 632/364/303
f 634/359/124 635/362/124 632/364/124
f 634/359/124 636/365/124 635/362/124
f 636/365/304 637/366/305 635/362/305
f 636/365/304 638/367/304 637/366/305
f 639/368/306 640/369/307 641/370/308
f 641/370/308 642/371/306 639/368/306
f 642/371/306 643/372/308 639/368/306
f 642/371/306 644/373/307 643/372/308
f 645/368/309 646/369/310 647/370/311
f 647/370/311 648/371/309 645/368/309
f 648/371/309 649/372/309 645/368/309
f 648/371/309 650/373/312 649/372/309
f 651/374/313 652/375/314 653/376/313
f 651/374/313 654/377/314 652/375/314
f 651/374/315 655/378/316 654/377/315
f 651/374/315 656/379/316 655/378/316
f 655/378/317 656/379/318 657/380/319
f 655/378/317 657/380/319 658/381/320
f 659/382/321 660/383/322 661/384/323
f 659/382/321 661/384/323 662/385/324
f 662/385/325 661/384/325 663/378/325
f 662/385/325 663/378/325 664/386/325
f 665/381/326 664/386/327 663/378/328
f 665/381/326 666/387/329 664/386/327
f 667/388/330 668/389/330 669/390/330
f 667/388/330 669/390/330 670/391/330
f 671/392/331 672/393/331 673/394/331
f 671/392/331 673/394/331 674/395/331
f 675/396/332 676/397/332 677/398/332
f 675/396/332 677/398/332 678/399/332
f 679/400/333 680/401/333 681/402/333
f 679/400/333 681/402/333 682/403/333
f 683/404/334 684/405/335 685/406/336
f 683/404/334 685/406/336 686/407/337
f 687/408/338 688/409/339 689/410/340
f 687/408/338 689/410/340 690/411/341
f 691/412/342 692/413/342 693/414/342
f 691/412/342 693/414/342 694/415/342
f 695/416/343 696/417/343 697/418/343
f 695/416/343 697/418/343 698/419/343
f 699/390/344 700/389/344 701/388/344
f 699/390/344 701/388/344 702/415/344
f 703/420/345 704/421/345 705/422/345
f 703/420/345 705/422/345 706/423/345
f 707/424/346 708/425/347 709/426/348
f 707/424/346 709/426/348 710/427/349
f 711/428/350 712/429/351 713/430/352
f 711/428/350 713/430/352 714/431/353
f 715/432/354 716/433/354 717/434/354
f 715/432/354 717/434/354 718/435/354
f 719/436/355 720/437/355 721/438/356
f 719/436/355 721/438/356 722/439/356
f 723/440/357 724/441/357 725/442/357
f 723/440/357 725/442/357 726/443/357
f 727/444/358 728/445/359 729/446/360
f 727/444/358 729/446/360 730/447/361
f 730/447/361 729/446/360 731/448/362
f 731/448/362 729/446/360 732/449/363
f 731/448/362 732/449/363 733/450/123
f 734/448/364 735/451/365 736/450/366
f 734/448/364 737/446/367 735/451/365
f 738/452/364 737/446/367 734/448/364
f 739/453/368 737/446/367 738/452/364
f 739/453/368 740/445/369 737/446/367
f 741/454/370 742/455/370 743/456/370
f 741/454/370 743/456/370 744/457/370
f 745/458/371 746/459/371 747/460/371
f 745/458/371 747/460/371 748/461/371
f 749/462/372 750/463/373 751/464/374
f 749/462/372 752/465/375 750/463/373
f 753/466/376 752/465/376 749/462/376
f 753/466/376 754/467/376 752/465/376
f 755/468/377 754/467/378 753/466/379
f 755/468/377 756/469/380 754/467/378
f 757/470/381 758/471/381 759/472/381
f 757/470/381 759/472/381 760/473/381
f 761/443/382 762/440/382 763/441/382
f 761/443/382 763/441/382 764/442/382
f 765/474/383 766/475/383 767/476/383
f 765/474/383 767/476/383 768/477/383
f 769/478/384 770/479/385 771/480/386
f 769/478/384 772/481/387 770/479/385
f 772/481/387 773/482/388 770/479/385
f 773/482/388 774/483/389 770/479/385
f 773/482/388 775/484/123 774/483/389
f 776/482/364 777/484/366 778/483/369
f 776/482/364 778/483/369 779/479/367
f 780/481/390 776/482/364 779/479/367
f 781/485/368 780/481/390 779/479/367
f 781/485/368 779/479/367 782/486/369
f 783/487/391 784/488/391 785/489/391
f 783/487/391 785/489/391 786/490/391
f 787/491/392 788/492/392 789/493/392
f 787/491/392 789/493/392 790/494/392
f 791/495/393 792/496/394 793/497/394
f 791/495/393 794/498/393 792/496/394
f 794/498/395 795/499/396 792/496/396
f 794/498/395 796/500/395 795/499/396
f 796/500/397 797/501/397 795/499/397
f 796/500/397 798/502/397 797/501/397
f 799/503/398 800/504/399 801/505/400
f 799/503/398 801/505/400 802/506/401
f 799/503/398 802/506/401 803/507/402
f 804/508/403 799/503/404 803/507/405
f 804/508/403 805/504/406 799/503/404
f 804/508/403 803/507/405 806/509/407
f 807/510/408 808/511/409 809/512/410
f 807/510/408 809/512/410 810/50/411
f 807/510/408 810/50/411 811/513/412
f 812/514/413 813/515/414 814/516/415
f 812/514/413 814/516/415 815/517/416
f 812/514/413 815/517/416 816/518/417
f 817/519/418 818/520/419 819/521/420
f 817/519/418 819/521/420 820/522/421
f 817/519/418 820/522/421 821/523/422
f 822/524/124 823/525/124 824/526/124
f 824/526/124 825/527/124 822/524/124
f 825/527/124 826/528/124 822/524/124
f 825/527/124 827/529/124 826/528/124
f 827/529/124 828/530/124 826/528/124
f 827/529/124 829/531/124 828/530/124
f 829/531/124 830/532/124 828/530/124
f 829/531/124 831/533/124 830/532/124
f 832/368/423 833/534/424 834/535/424
f 834/535/424 833/534/424 835/536/425
f 834/535/424 835/536/425 836/537/426
f 836/537/426 835/536/425 837/538/427
f 836/537/426 837/538/427 838/539/428
f 838/539/428 837/538/427 839/540/429
f 840/541/430 841/542/431 842/543/432
f 840/541/430 843/544/433 841/542/431
f 844/545/434 843/544/435 840/541/436
f 844/545/434 845/546/437 843/544/435
f 845/546/437 844/545/434 846/547/438
f 845/546/437 846/547/438 847/548/439
f 847/548/440 846/547/441 848/549/442
f 847/548/440 848/549/442 849/550/443
f 850/551/444 851/552/445 852/553/446
f 850/551/444 852/553/446 853/554/447
f 854/555/448 853/554/449 852/553/450
f 854/555/448 855/556/451 853/554/449
f 855/556/451 854/555/448 856/557/452
f 855/556/451 856/557/452 857/558/453
f 858/559/454 857/558/455 856/557/456
f 858/559/454 859/560/457 857/558/455
f 860/561/458 861/562/459 862/563/460
f 860/561/458 863/564/461 861/562/459
f 864/565/462 863/564/463 865/561/464
f 864/565/462 866/566/465 863/564/463
f 867/567/466 866/566/467 864/565/468
f 867/567/466 868/568/469 866/566/467
f 869/569/470 870/570/471 871/571/472
f 869/569/470 871/571/472 872/572/473
f 873/539/474 874/538/475 875/540/476
f 876/537/477 874/538/475 873/539/474
f 876/537/477 877/536/478 874/538/475
f 878/535/479 877/536/478 876/537/477
f 878/535/479 879/534/479 877/536/478
f 880/368/480 879/534/479 878/535/479
f 881/573/481 882/574/482 883/575/483
f 881/573/481 883/575/483 884/576/484
f 885/577/485 886/575/486 887/578/487
f 885/577/485 887/578/487 888/579/488
f 889/580/489 890/581/490 891/582/491
f 889/580/489 891/582/491 892/583/492
f 893/584/493 894/585/494 895/575/495
f 893/584/493 895/575/495 896/577/496
f 897/561/497 898/562/498 899/563/499
f 897/561/497 900/564/500 898/562/498
f 901/586/501 900/564/502 902/561/503
f 901/586/501 903/566/504 900/564/502
f 904/567/505 903/566/506 901/586/507
f 904/567/505 905/568/508 903/566/506
f 906/587/509 907/588/510 908/589/511
f 906/587/509 908/589/511 909/583/512
f 910/590/513 911/581/514 912/591/515
f 910/590/513 912/591/515 913/592/516
f 914/577/517 915/575/518 916/578/519
f 914/577/517 916/578/519 917/579/520
f 918/593/521 919/594/522 920/595/523
f 918/593/521 920/595/523 921/596/524
f 922/584/525 923/585/526 924/575/527
f 922/584/525 924/575/527 925/577/528
f 926/597/529 927/598/529 928/599/529
f 926/597/530 929/600/530 927/598/530
f 926/597/531 928/599/531 930/601/531
f 926/597/532 930/601/532 929/600/532
f 931/597/533 932/598/533 933/599/533
f 931/597/534 934/600/534 932/598/534
f 931/597/535 933/599/535 935/601/535
f 931/597/536 935/601/536 934/600/536
f 936/602/537 937/603/538 938/604/539
f 939/605/540 937/603/538 936/602/537
f 938/604/539 937/603/538 940/606/541
f 939/605/540 941/607/542 937/603/538
f 938/604/539 940/606/541 942/608/541
f 943/609/541 941/607/542 939/605/540
f 942/608/541 940/606/541 944/610/543
f 943/609/541 945/611/544 941/607/542
f 942/608/541 944/610/543 946/612/545
f 947/613/546 945/611/544 943/609/541
f 946/612/545 944/610/543 948/614/547
f 947/613/546 948/614/547 945/611/544
f 946/612/545 948/614/547 949/615/548
f 949/615/548 948/614/547 947/613/546
f 950/602/549 951/603/550 952/616/551
f 953/617/552 951/603/550 950/602/549
f 952/616/551 951/603/550 954/618/553
f 953/617/552 955/619/552 951/603/550
f 952/616/551 954/618/553 956/620/551
f 957/621/551 955/619/552 953/617/552
f 956/620/551 954/618/553 958/622/552
f 957/621/551 959/611/553 955/619/552
f 956/620/551 958/622/552 960/623/552
f 961/613/551 959/611/553 957/621/551
f 960/623/552 958/622/552 962/624/550
f 961/613/551 962/624/550 959/611/553
f 960/623/552 962/624/550 963/625/549
f 963/625/549 962/624/550 961/613/551
f 964/626/554 965/627/554 966/600/554
f 967/628/555 965/627/555 964/626/555
f 966/600/556 965/627/556 968/629/556
f 968/629/557 965/627/557 967/628/557
f 969/630/558 970/631/558 971/632/558
f 972/633/559 970/631/559 969/630/559
f 971/632/560 970/631/560 973/634/560
f 973/634/561 970/631/561 972/633/561
f 974/530/562 975/635/563 976/636/564
f 977/637/565 975/635/566 974/530/567
f 974/530/562 976/636/564 978/638/568
f 977/637/565 979/639/569 975/635/566
f 976/636/123 975/635/123 979/639/123
f 980/640/570 979/639/570 977/637/570
f 978/638/571 976/636/572 981/641/573
f 979/639/123 981/641/123 976/636/123
f 978/638/571 981/641/573 982/642/574
f 980/640/570 983/643/570 979/639/570
f 979/639/123 983/643/123 981/641/123
f 984/644/575 983/643/575 980/640/575
f 982/642/576 981/641/577 985/645/578
f 983/643/123 985/645/123 981/641/123
f 982/642/576 985/645/578 986/646/579
f 984/644/575 987/647/580 983/643/575
f 983/643/123 987/647/123 985/645/123
f 988/648/581 987/647/582 984/644/583
f 986/646/584 985/645/585 989/649/586
f 987/647/123 989/649/123 985/645/123
f 986/646/584 989/649/586 990/650/587
f 988/648/581 991/651/588 987/647/582
f 987/647/123 991/651/123 989/649/123
f 992/652/589 991/651/590 988/648/591
f 990/650/592 989/649/593 993/653/594
f 990/650/592 993/653/594 992/652/595
f 992/652/589 993/653/596 991/651/590
f 991/651/123 993/653/123 989/649/123
